/* XPM */
static char *_cf4ccabdb6341eeddc25d963729245e3ZqYHA5JElmTA883[] = {
/* columns rows colors chars-per-pixel */
"64 64 249 2 ",
"   c #050101",
".  c #0B0200",
"X  c #0C0A04",
"o  c #08060A",
"O  c #120400",
"+  c #180700",
"@  c #140B02",
"#  c #1B0D01",
"$  c #160C0B",
"%  c #1C1204",
"&  c #15120D",
"*  c #1C140A",
"=  c #1E190B",
"-  c #161409",
";  c #070915",
":  c #170E12",
">  c #1A1614",
",  c #0E1011",
"<  c #210E01",
"1  c #290E00",
"2  c #231303",
"3  c #2B1A05",
"4  c #23160C",
"5  c #251A0C",
"6  c #2C1D0C",
"7  c #291704",
"8  c #321E0B",
"9  c #3B1E02",
"0  c #241B13",
"q  c #2B1C11",
"w  c #241B17",
"e  c #301E17",
"r  c #2E210D",
"t  c #25200D",
"y  c #34230C",
"u  c #3A240D",
"i  c #39280D",
"p  c #2D2114",
"a  c #2C221B",
"s  c #2A261C",
"d  c #332414",
"f  c #3B2613",
"g  c #3C2B14",
"h  c #33261B",
"j  c #39261A",
"k  c #342A1B",
"l  c #3C2C1C",
"z  c #362913",
"x  c #3B311D",
"c  c #191829",
"v  c #18172F",
"b  c #231B29",
"n  c #211F34",
"m  c #1A2238",
"M  c #2C2427",
"N  c #352B23",
"B  c #3B2D22",
"V  c #342927",
"C  c #3D3224",
"Z  c #3C322A",
"A  c #383326",
"S  c #282636",
"D  c #372A39",
"F  c #3C3638",
"G  c #2D313A",
"H  c #422C14",
"J  c #422E1B",
"K  c #4B2E1A",
"L  c #482D12",
"P  c #433116",
"I  c #493216",
"U  c #44331C",
"Y  c #4B351B",
"T  c #4C391D",
"R  c #47391F",
"E  c #543B1E",
"W  c #543A1B",
"Q  c #412E23",
"!  c #433323",
"~  c #4B3522",
"^  c #463A24",
"/  c #4C3B24",
"(  c #43352A",
")  c #443A2B",
"_  c #4C3D2B",
"`  c #4B3629",
"'  c #533C24",
"]  c #593D24",
"[  c #533E2B",
"{  c #553A25",
"}  c #453B32",
"|  c #4B3D33",
" . c #453B39",
".. c #533E33",
"X. c #4D412D",
"o. c #4B4029",
"O. c #554125",
"+. c #5B4325",
"@. c #54432C",
"#. c #5B442C",
"$. c #5E492E",
"%. c #4C4233",
"&. c #4C443A",
"*. c #544433",
"=. c #5B4533",
"-. c #5D4A33",
";. c #53453B",
":. c #5B4739",
">. c #5C4B3B",
",. c #554A38",
"<. c #5D513B",
"1. c #5F5137",
"2. c #61462B",
"3. c #634B2D",
"4. c #644526",
"5. c #614633",
"6. c #644C34",
"7. c #694D34",
"8. c #634E3B",
"9. c #6A4D3A",
"0. c #614738",
"q. c #645136",
"w. c #6B5234",
"e. c #65533C",
"r. c #6B543C",
"t. c #6C583C",
"y. c #71563C",
"u. c #735B3D",
"i. c #745737",
"p. c #724F2F",
"a. c #7C613E",
"s. c #2F3148",
"d. c #353348",
"f. c #352E44",
"g. c #453C48",
"h. c #5B4C42",
"j. c #564A47",
"k. c #5D5448",
"l. c #524753",
"z. c #654E43",
"x. c #654E48",
"c. c #645443",
"v. c #6C5442",
"b. c #6D5A43",
"n. c #6C5B4B",
"m. c #67574A",
"M. c #715742",
"N. c #745B44",
"B. c #795D44",
"V. c #735D4B",
"C. c #795E4B",
"Z. c #71554A",
"A. c #6B5D52",
"S. c #665557",
"D. c #765E53",
"F. c #654B58",
"G. c #756144",
"H. c #7B6245",
"J. c #75634C",
"K. c #7C644B",
"L. c #7D694C",
"P. c #766949",
"I. c #6D6253",
"U. c #6B635B",
"Y. c #756453",
"T. c #7C6453",
"R. c #7D6A53",
"E. c #7B645A",
"W. c #7C6C5A",
"Q. c #74675A",
"!. c #7D7159",
"~. c #6D6147",
"^. c #7B7163",
"/. c #805C38",
"(. c #88653F",
"). c #826445",
"_. c #82654C",
"`. c #846A4D",
"'. c #896B4D",
"]. c #8B6B44",
"[. c #936E4E",
"{. c #8A714F",
"}. c #86714D",
"|. c #95744E",
" X c #95784C",
".X c #826652",
"XX c #846C53",
"oX c #8A6E53",
"OX c #836D5B",
"+X c #8A6E59",
"@X c #816758",
"#X c #847155",
"$X c #8C7254",
"%X c #84735B",
"&X c #8C745C",
"*X c #8D795C",
"=X c #927455",
"-X c #92765C",
";X c #947A5D",
":X c #9A7C5C",
">X c #967955",
",X c #A27D5B",
"<X c #847464",
"1X c #8C7562",
"2X c #8D7A63",
"3X c #8C7B6A",
"4X c #86776A",
"5X c #917663",
"6X c #947B63",
"7X c #9A7D63",
"8X c #937D6A",
"9X c #9A7E6A",
"0X c #88776C",
"qX c #A27E64",
"wX c #9E815E",
"eX c #A2855D",
"rX c #968164",
"tX c #9C8264",
"yX c #94816A",
"uX c #9C836B",
"iX c #9D8869",
"pX c #948171",
"aX c #9B8673",
"sX c #9C8872",
"dX c #8E836F",
"fX c #A28365",
"gX c #A2866B",
"hX c #A3896D",
"jX c #AA8C6C",
"kX c #A78965",
"lX c #A38A73",
"zX c #A68E79",
"xX c #A88C75",
"cX c #AC937A",
"vX c #A99177",
"bX c #B3967A",
"nX c #B39A7D",
"mX c #B99B7F",
"MX c #A9916F",
"NX c #AE9984",
"BX c #AB9582",
"VX c #B49B83",
"CX c #B49E89",
"ZX c #B29881",
"AX c #A99C92",
"SX c #BCA48C",
"DX c #B9A189",
"FX c #BAA894",
"GX c #C2AC95",
/* pixels */
"1XC.8.M.*X6X;X$X{.$X'.`.>XuXrXtXwXwXfXfXqX,X|.].(./.p.4.E 3.H.$X>X:X:X>XtX;X;XwXfX{.a.+.I I I +.q.t.v.v.v.t.y.w.N.H.5X7X-XN.y.r.",
".X{ { #.t.;XhXrXH.(.u.H.H.$X;XrXfXtX;X-XqX:X[.).].p.4.W 2.w.$X;XeXkXkX7XfX;XwX*XoXK.P.3.Y I H Y +.q.8.q.8.6.7.6.y.K.C.5X+XoXr.#.",
"9.0.C.9.7.B.'.'.H.i.N.`.#XiXuXrX;X'.*XrX5X'.H.u.p.7.] ] M..X:X7XeXfXgX;X9XcX*X$.#.-XyXN.+.H T O.e.N.b.v.M.t.N.N.7.] 0.' 5.6X9X8.",
"B..X.X_.B.G.G.B.w.t.q.t.~.#X3XsXP.P.iXhX+XY.b.#.7.7.K 5.C.oX7XkXtXrX7XuXBXcX[ 1 { +XK.0.[ E O.6.t.t.b.Z.N.N.B.K.T.C.N.oX6X.XT.=.",
"@X9X_.K.C.K.N.e.t.t.X.A p 5 B Y.b.Y.Y.m.*.%.%.,.8.@.U ' .XoX:XfXgXxXbXCXlX0.u ' R.lXe.M.5.2.y.N.i.K.$X6X5X6X7XuXxXxXuX5X1Xr.@.2 ",
"#.B.K.N.M.9.6.-.X.C p p * . . | ,.| d 2 O . 5 ) ^ z i ' K.oX).'.9X@Xv.K.zX=.2 R.lXiX&X8.=.0.B.G.XX;XgXgXgXlXhXgX8XuX;XH.6.-.l d ",
"K.w.C.K.7.#.=._ % % | 0Xm.w .  .A.4 .   = k k k x 6 6 #.'.$X)._.y.1 u u 6XrXI rXcX%XG.K.N.N.M.$X;X7X7X7X6XuX7X6X6X6XXXq.b.OX3XQ.",
"+XC.K.M.' =.v.b._ 7 A.^.Z } # ;.D.. 5 C I.<Xc.%.2 % + z e.H.$X'.K 9.#Xe.a.tX$XoXP.;X6X*X;XoX_.N.B.N.C.B.G.B.B.K.@X.X%XR.q._ } ( ",
"XX5X6Xt.' -.q.G.*Xe.u f J [ g Y.:.O n.Y.>.@.J.@.l 6 # 2 H $.-X5.M.5XgX{.`.H.uXOXe.N.5XrX*XH.w.2.0.6.2.5.2.0.8.M..X+X&XT.=.% . . ",
"y.+X8Xv.' O.^ q.J.1Xr.' O.6.r.pX! q :.T.v.! g 1 Y @.y 2 y ~ C.=.$X7XH.a.}.H.*XNX8X` o.T $.-.e.K.B.M.C.M.N.M.N.XX5X9X7XK.V.*.5 O ",
"0.XXrXe./ o.T @.-.b.XXXXM.U G.aXe e *.OX&X.XC.V.J.N.5.P P J U M..XB.).{.=X).P.Y.X.O 7 e.@.J =.3X5X5X5X8X8X&X;X-X5X9XoXK.%XyX<Xk.",
"5.C.2Xt.R ^ x r / @.=.Z.=.=.2XW.e O ! T.K.zXcXuXxXvXrXJ.q.#.{ e.$X;XoX).$X$X[ @.l C W.<Xc.# < :.XXXXR.R.T.R.P.'.+X_.B.*XsXdX4X^.",
"$.e.%Xt.^ / l % 2 p l l Q *.z.x.* O ( T.w.t.gXgX$X5XuXlXlX2X_.-XcX9X).oXjX).2.#X%X<X<Xj.* . O ( b.t.~.n.Y.R.q.q.u.H.'.7XrXG.W.k.",
"@.q.!.<.^ o.^ p % O # ) ;.% + *   . 4 8.+X{ Z.xXlX&X*XyX7X7XrXtXhXgX-X7XbX] `.*X3XQ.N > .   $ ;.W.b.n.c.:.J.XX$.7.N.y.gXG.l !.A ",
"' -.P.-.! ` ! d k = * k.U.( + . - * 4 6 e.&X9.9.zXlX*X6X7X;X9X9XgXkXhX-X7X2.5X%X,.= X o o .   Z n.m.a # + B T.T.w.9.7.C.8.j * B ",
"-.-.N.=.! ^ U d x 5 X p j.A.| | &.} _ 5 < e.1XN.Z.9X7X7XqXqX9XqXkX,XgXfXqX6X6XXX@.    X     @ B h.` . . . h m.OX9X9X@XT.0.Y.j.( ",
"v.e.e.@.x R R r Z M . . $ a k.&.x s s X X 2 J.yX8.N.[.>X,X,X-X7XfX,XfXfX7XqX6X=X%XU # > .   B ,.:.j O . . 5 ( A.8X5X*X6X2XY.*.a ",
"n.e.@.^ R o.x y C ;.. o o     . X       - . ) 8X1XK.'.[.,X|.:X+X:X:X:XeXfXfX7X5XrX3Xm.h + N n.Y.c.Q < 2 + * # q J Q E 0.V.c.:.( ",
"&XJ.O.R R O.P y ! ;..     o         o X & . 5 D.yX%X).|.[.>X=X-X;X:XeXqXqX7X7X7X;X&X1X[ Q Z.*XJ.V.v.z.>.c.! 7 l J K L ' >.<.@ @ ",
"*XT.@./ R T x y ! | - -   o           o &   O *.&XXXN.{.].'.).[._.=XqX,X:XqX5X*X$X#XL.N.N..XN.2.e.M.N.J.Y.Y.Z.T..XC.$.' R.3XA.q ",
"-X`.@.' R / U d x _ s F           X X & - X = ^ ~.P.t.3.u.`.'.).[.).a.|.rX7X*X$XXX_._.$X_.B.B.G.H.$X-X7XuXsXaX5X6X&X$Xw.t.%XAXU.",
"rXXXO.~ P U g y R o.d &.V > > > , & > t - t ^ ^ q.~.-.y R 1.XX7X;X'.3.w.&X%X*XT.P.B.XXXX+X6XtXgXtXkXtX;XyX2X5X-X-X$X=X$XP._ h k.",
"*X*X9.[ U U U y g e.! 5 A A V V s * 5 A o.^ ^ P R ~.<.3 % r _ XX*XiX-.z X.c.W.!.C.t.N.uX1XXX6XtXhXkX;X-X$XtXtXoX;XqX-XrXT.U 4 5 ",
">.%XP.-.^ U Y g z e.Y.*.C # . 4 x C ^ ^ R $.q.R z X.,.x 3 @ + g q.!.@.% * % p c.e.6.e.D.zXsX*X*X7XfX;X>X;X7X;XoX'.oXjXvXgXT.| j ",
"7 _ !.c.o.R P P x q.R.!.T.Y.n.z.,.` ! e.K.`.u.T P r t _ :.! # O r e.( . . . @ 6 ~ @.>.e.V.2XhXwX$X$XB.u.'.7X7X7.] p.'.qXgX8X0Xm.",
"O % W.<X#.U T g H +.T.*X6X+XZ.-.[ ' M.5X`.7Xu.w.! @ 5 ) m.n.;.+ . A.} > M w N d d J ` #.+.e.$Xu.w.$X_.u.2.-XqX2.p.'.4.y..X&X1XD.",
"@ @ ) %Xe.R ' U u #.K.&XoXy.u.u.*XuXcX8X$XjX$Xt.c.X.2 n.M.5.*.d 2 W.) h | Q.<.| l 7 3 =.6.y.t.N.%X_.7XrX5.uXgXB.+X-X'.i.y.C.z.8.",
". O k ~.P.R q.' H 5.M.K.XX=X*X=XgXVXNX5X;XMXwXa.P.%X>.H H K Q ! C 3XB ( >.h.>.! f 6 { K._.XXy.M.XX2X_.t.7.7X6X+X7X`.'._.B.B.z.[ ",
"} h.m.J.L.#.b.T U 5.N.oX7XgX;XrXgXMXsX*X}.wX{.i.e.R.%Xe.W ] 6.#.Y.!.j 0.R.c.H 7 7 *.C.XX7X7X5X*X8XR.t.$.] ' ] 2.5XhX$X_.=X5XT.5.",
"3X<XT.*Xu.3.P.$.E 5..X$XuXtX*X;XuXiXwX#XL.#X`.`.3.q.u.H._.G.[ -.yXb.1 5.+X#XP.G.K.K.v.8.K.XXrXgX6X' @.+.G.L.e.5.y.1XrX'._.+X1XV.",
"0XaXaXN.+.i.#Xb.#.=.XX5XoXw.5.G.$XwX;XL.a.3.t.L.t.{ ' e.N.8.~ 0.yXe.1 ` C.N.H.u.t.[ U / #.t.L.hXN.q.#X`.8XlXuX&XM.t.%XuXM.v.aXOX",
"NXCX6X9.O.H.*XN.#.' .X6Xy.~ g ' H.6XiXe.i y $.N.y.u 8 l d 6 -.v.W._ O j ..~ T E U 6 l R y I i.rXe.@.@.U l ` *.*.T.W.N.6Xt.=.@XOX",
"FXCX7X$.' ;XxXXX7.2.).5X;XR.-.! K.xX8XR 3 v.-X.XN.8 @ % x %.f % a @ . k q 6 r 6 z p z t y P #.2Xc.h # .         p m.~.$Xt.O.e.v.",
"FXDXyX-.`.nXnX7XC.2.oX-X*XXXJ.-.K.zXlX5.b.2X6X%XM.~ 3 4 m.I.>.X . . N h.( d d l k z t z p ^ >.%X,.k .   X   X     | c.*Xt.' ..=.",
"FXGXcXN.hXGXSXlX+XC.B._.$XK.b.t.K.gXuXN.+X&X6XK.M.,.k # V A U.S.}  .;.>.*._ ! l x r r d U @.@.2Xc./ d 4 @ @ @ @ ! e.R.*X6.~ f j ",
"FXFXnX*XcXSXGXBX5X9X9.7.N.&XR.6.K.xXvX%X#X.XK.K.e.V.;.-     &  .&.;.C k d 3 r 3 % 7 g ^ *.@.[ 6XN.y _ } ;.A.n.b.n.R.8X%X/ _ q # ",
"DXDXcXiXbXCXVXNXzXlXgX-XoX1X.Xg T N.6.e.T.XX$XXXXXyXh.a   .     . O . . @ 2 p % % i o.-.@./ =.+XJ.j j q | ..[ 5.K..X7X2XX.X.s * ",
"NXVXNXZXnXZXNXCXZXlXlX9X7X.X~ 2 2 < 2 H v.7XhX%X*X8XY.` h 0 .       O 0 B l 2 r g X.1.$.@.@.q.t.%X-.m.E.OXOX.X.XK.G.yXc.,.a & X ",
"CXNXCXVXbXbXZXZXCXzX+X9X&X8./ c.OXY.XXXXt.M.7XhXK.XXn.) &.| A F V w Z Z h p g @.1.t.-.$.q.e.K.e.R.v.C.<X5XC.K.).H.$XK._ X.@ &   ",
"NXvXmXnXbXmXSXCXCXlXC.1Xe.>.Y.>.c.n.n.E.XXK.H.tX_.K.0.f 5 t k | B h k d ! @.t.P.!.a.t.u.t.L.T.N.P.K.M.&X1X7.`.oX'.K.@.@.t X   > ",
"CXzXCXmXbXmXZXmXCX;XM.2X/ l % O # @ X d >.W.N.7X_.6.-.R ) l p 3 r g R @.q.P. X*X$X$X*Xa.oXN.oXXX$X6XoX9X:X7.{.tX*X7.T T z ^  .k.",
"NXvXcXbXvXfXuXhXhXP.6.*X^ # .   . . . X @ *.v.uXK.7.@.@.e.>.$.6.e.q.H.L.!. X X*X X XH.*XB.9.C.&X6X7XqXgXtXy.].7XuXXXN.M.G.+X3X4X",
"%XyXsXlX5X=X5X;X*XO.O.%X%.k O     o       # c.8XB.e.P z R R E 3.t.a.u.H.a.}.$X XwX/.].u.3.#.t.T.5X9X5XqXkX=X_.6XuX6X7X7XrXrXzX8X",
"^ >.t.K.K.XXXXR.~.P z yXn.C &.A V w > X   0 n.6Xe.+.g y P P T w.O.$.3.O.$.a.{.=X).}.`.i.t.+.0.Z.B.-X6X7X7XhX=X$X7X5X-X*X'.N.T.C.",
"O 2 y ` w.L.XXJ.*._ d I.W.3 q l >.m.m.;.p _ Y.8X@.T x ' v.q.+.q.P.+.N.3.T u.}.XXH.a.u.u.r.@.X.e.B.B.'.%X-XwXrX;X1X7XXXM.#.[ N.N.",
"N # [ ' 8.T.<.) t k d k.dX2 7 J 8.r.8.V.n.n.P.8X$.H O.P.%X#XG.3.}.*Xu.q.I u.;X$X`.a.G.u.e.@.^ <.0.[ #.5.i.`.*XrX.Xv.-.[ H J [ Z.",
"A.Q :.m.:.` N @ X 5 p <.aXz ! .X-X7XtXXX.XG.XXrX+.I O.K.5X$X}.].H.$Xi.+.$.;XH.E E 3.H.*Xt.[ _ %._ B + < d ` b.G.-.C e 7 e ) Q B ",
"k.C | } w . . X - x X.<.!...=.6X7XfXbXbX;X_.tX;XO.L E G.`.'.`.$.+.+.Y `.=X=XY 9 u L w.-XP.` 6 d h | ( 5 O # <./ d 2 . O 5 B | B ",
" .A M     @ * x <.A k ,.W.-.8.oX+X-XxXDX,X-X-X$XE L T }.L.P.e.^ R 2 # v.6XL.] +.2.I 7.`.6Xu.2 2 ,.S.I.h.h O n.c.. * Z } C 0 a 0 ",
"U.A X   p Z *.m.,.5 # q m.v.M.;X_.@XxXSX=XoXoXoX+.T a.P.P l _ Q.W.c.! f r.rXi.w.`.9.{ #.K.%XW.l ` A.%.k C r 3X,.A C m.^.h.k O O ",
"k.*   - %.I.4XQ.% B U.V B Y..XuX@XB.xXbX.X=X.XC.+.e.!.X.% @ . X k.2XXXB.] gX_.3.t.7.O.@.+.w.#XW.j 8 U ,.o.1.NX3 ,.I.%.` 3 q l a ",
"=   5 %.n.1XBXT.+ <XAXD.B D.XXgX+X/.xXjXoX7XC.9.e.<XY.p . . o   % -.*XoXK K.-X_.u.5.>.t.$.#.b.R.T.n.b.6.O.!.dX% ^ %XP.#.~ :.Q.,.",
"  * C m.XX5XsXM.# D.aX<Xz e.XXbX$X_.jXfX=X;XB.0.Y.R.C % O X o o . @ n.uXB..X=X).u.G.v.8.#.=.@.@.v.b.] U O.6XY.# Q D.5X9XxXlXaXW.",
"s N ) b.+X*X5X.X~ W.3X/ z P.7XjX:X$XbXfX=XfXw.9.&X8.d O     o     . q +XB.'.=X2.3.#XC.>.:.*.! ) R y f #.t.3Xc.@ Q @XZ./.+X9XcX8X",
"j.A s ,.#.] y.B.#.N.$.l !.rXjXfXhXtXbXfX>XfXH.'.6X%X1X>.C 0 . .   . w A.@X`.u.M.B.K.v.=.^ 6 @ - 2 2 ^ [ _ h.Z . Q x.z.K 9.M.1X1X",
"j.- X k f H { +.2.7.$.L.%X%XvXlXhXcXbXhX:XfXfX7X7XuX7X1X%X<X( O @ M j.<XOXK.5.+.9.0.l 7 r X @ - - ,.>.7 O O . O J Q { ~ 2.z.@XD.",
"h..   %.1XOX$X*X*X6Xv.d q p :.E.aXgXgXfX:XfX:XoX$X-X$X%XT.<X3X) J D.<XV.8.0.P P l y 6 5 p * X , : j.U.D.Q @ p o.[ 6 6 _ _ v.W..X",
"x.+ . ;.aXK._.H.L.R.V.h 4 . . q N.;XgX=XeXkXjX:X`.i.H.`.K.P.W.Y.V.1Xb.K Q j 6 g P l l k C > X &   $ D j.S.j.,.) k % O M | m.E.OX",
"D.` q ) x.v.*Xu.a.#.e.h.|   > . u i.>X XkXkXkXkX'.i.w.3.6.r.t.q.8.I g g f y ! ! ' ' ` .. .S > c ; ; o ; c c ; c ; ; ; ; b j.OXXX",
"D.v.A.q ..8XuX$XiXg e.FXS.    O W i.(. X,XeXeX>X=Xt.3.3.E T T y 7 z i y y l *.@...=...0.j.g.d.G S m m c c c s.v m m s.n S F W.W.",
"0.z.! + =.XXXX`.cX@.@.<X5 X 5 _ u. X]. X XeXjXMX$X3.w.6.W T g 2 3 d J ` @.-.c.z.5.5.9.x.F.F.l.d.G l.s.v c b S n d.f.f.v D b j Q ",
"Q ~ 2 1 ' t.C.K.6XXXW.! @ ^ >.~.'. X(.].].>XrX;XP.$.$.T g z y i z [ >.Z.v.M.Z.M.Z.v.Z.Z.S.F.S.j.M S D D f.D D b v c ; ; D ( Q j ",
"4XQ.n.[ _ 0.N.M.C.8XOX*.l l P ~ 3.w.p.i.a.w.t.r.8.[ / ! l f Y >.n.D.D..XK.T.T.T.@X.X@X@X@XE.Y.A. .$ O $ $ : >   o $ : e ..z.m.x.",
"dXdX3XT.v.8.[ 0...Z.0.=.=.@.[ 2.4.3.3.3.w.3.' @.l 6 g ! @.-.e.b.E.D..XD.C.T.C.T.C.D.D.D.E.D.Z.z.) > 4 $ $ . X   X s } h.m.Z.E.n."
};
