/* XPM */
static char *_e4c00b044924dcfdf5c64754eedcab2R5qWxq2EbjsGHsKo[] = {
/* columns rows colors chars-per-pixel */
"64 64 225 2 ",
"   c #050100",
".  c #0B0301",
"X  c #0D0A03",
"o  c #00010B",
"O  c #0D0409",
"+  c #0D0B09",
"@  c #060900",
"#  c #110601",
"$  c #130C02",
"%  c #190D03",
"&  c #130D0A",
"*  c #190F0A",
"=  c #0F100B",
"-  c #161104",
";  c #1B1305",
":  c #1E1804",
">  c #15120B",
",  c #1B140B",
"<  c #1E190D",
"1  c #140C16",
"2  c #151412",
"3  c #1C1512",
"4  c #1E1A14",
"5  c #17161A",
"6  c #211503",
"7  c #221A06",
"8  c #291E06",
"9  c #21160C",
"0  c #231B0C",
"q  c #2A1D0D",
"w  c #211711",
"e  c #241C13",
"r  c #291E14",
"t  c #21161C",
"y  c #241D1A",
"u  c #291F19",
"i  c #281612",
"p  c #25200E",
"a  c #2B210D",
"s  c #2E280E",
"d  c #34220C",
"f  c #33290E",
"g  c #262114",
"h  c #2B2314",
"j  c #2E2916",
"k  c #26211B",
"l  c #2C251B",
"z  c #2E291C",
"x  c #332515",
"c  c #332916",
"v  c #392B14",
"b  c #31261B",
"n  c #332B1C",
"m  c #3A2D1C",
"M  c #392517",
"N  c #393116",
"B  c #3B311D",
"V  c #3B341E",
"C  c #170920",
"Z  c #1B1A26",
"A  c #281C26",
"S  c #2C2521",
"D  c #2E2A22",
"F  c #25232C",
"G  c #302622",
"H  c #342C22",
"J  c #3A2E22",
"K  c #332B28",
"L  c #382F29",
"P  c #30222F",
"I  c #363124",
"U  c #3B3324",
"Y  c #3F3925",
"T  c #35312A",
"R  c #3C342A",
"E  c #3E392C",
"W  c #2B2B36",
"Q  c #272736",
"!  c #302634",
"~  c #322C34",
"^  c #312C3D",
"/  c #392E3E",
"(  c #3D3631",
")  c #3E3931",
"_  c #3C3438",
"`  c #373330",
"'  c #44341C",
"]  c #453A1D",
"[  c #4C391E",
"{  c #4B371C",
"}  c #423524",
"|  c #483724",
" . c #433A25",
".. c #493B23",
"X. c #41352B",
"o. c #433B2C",
"O. c #4A3D2C",
"+. c #4D3729",
"@. c #513D23",
"#. c #443C33",
"$. c #493E32",
"%. c #413A39",
"&. c #493F38",
"*. c #403531",
"=. c #523F30",
"-. c #4B4226",
";. c #47412B",
":. c #4A422D",
">. c #52452C",
",. c #5A452B",
"<. c #53492E",
"1. c #5C4B2B",
"2. c #544324",
"3. c #464133",
"4. c #4C4334",
"5. c #4E4934",
"6. c #46423A",
"7. c #4C453B",
"8. c #4D483B",
"9. c #524535",
"0. c #534A35",
"q. c #5B4D34",
"w. c #52463A",
"e. c #544C3B",
"r. c #5A4D3D",
"t. c #5E5234",
"y. c #56503C",
"u. c #5C533D",
"i. c #5F583E",
"p. c #62502C",
"a. c #614E39",
"s. c #635334",
"d. c #64543B",
"f. c #69563B",
"g. c #635B3D",
"h. c #6B5A3C",
"j. c #695937",
"k. c #705C37",
"l. c #6B613E",
"z. c #372A43",
"x. c #2F3042",
"c. c #3A3343",
"v. c #3A384A",
"b. c #443946",
"n. c #483A5B",
"m. c #4B4748",
"M. c #544D42",
"N. c #5A4D42",
"B. c #554C4A",
"V. c #575143",
"C. c #5C5444",
"Z. c #57514B",
"A. c #5C554B",
"S. c #5F5A4C",
"D. c #5E5946",
"F. c #544952",
"G. c #514757",
"H. c #635543",
"J. c #645B44",
"K. c #6B5C42",
"L. c #63564B",
"P. c #635A4B",
"I. c #6A5D4B",
"U. c #645D53",
"Y. c #635D58",
"T. c #6C5E53",
"R. c #6C6245",
"E. c #6B624C",
"W. c #65624F",
"Q. c #7B6544",
"!. c #72654A",
"~. c #7B6548",
"^. c #726A4D",
"/. c #736040",
"(. c #6B6253",
"). c #6E655C",
"_. c #6E6A5B",
"`. c #696455",
"'. c #716553",
"]. c #746A55",
"[. c #746759",
"{. c #746C5B",
"}. c #796E5C",
"|. c #7A6C52",
" X c #7C735D",
".X c #74715E",
"XX c #5C5461",
"oX c #6C6466",
"OX c #756F62",
"+X c #7D6E61",
"@X c #706D68",
"#X c #7C7463",
"$X c #7A7568",
"%X c #6D6574",
"&X c #817456",
"*X c #8D775A",
"=X c #88795D",
"-X c #857458",
";X c #937B55",
":X c #836D55",
">X c #827666",
",X c #817966",
"<X c #897D64",
"1X c #837B6A",
"2X c #877D73",
"3X c #968059",
"4X c #8A836D",
"5X c #8D8573",
"6X c #8D877B",
"7X c #928577",
"8X c #938868",
"9X c #9C8B81",
"0X c #999387",
"qX c #A89E8D",
"wX c #A49785",
"eX c #ADA08D",
"rX c #B4A89D",
"tX c #B1A396",
"yX c #B4ABA3",
"uX c #C4B9AE",
"iX c #DED2C5",
"pX c #DFD5CB",
"aX c #ECDBD1",
"sX c #F6E8DB",
"dX c #FFFCED",
/* pixels */
"E 4 4 @   o o o       . H.!.:.$ = 5 - 7 i.g.s.R.K...% x $.U n : - 3.y . l #.3.I r L R p % n o.I x U v n B a B  .e U G $ ; % , ; ",
"0 $ > @   o           w q.0.V - 2 > , p i.R.h.' % a C.(.5X1X,X- X 5.y @ e I J k > #.w.7 - m R U U 5.r.e.V h R I r E # * e L 7.m ",
"0 , >                 H K.t.5.$ 2 & D N.D.} 6 8 |.}.w.C.h   H e @ 8.y . 4 T E l ; n I - - H E x ; U.U n & # l 4 2 . * 3 D * 4 H ",
"o., > & X @     T > @ X.g.d.9.. @ .     - . H.wX'.$.L.7 * b L % ; 8.4 & g g y r & X n ; % m R r   I . .   . Y.).S   , L *.K y ` ",
"U , + k W.8.e X o.$ w H.f...J #   @X3 $   H N.b x 9.$ 0 I E H . $ 7.y $ - @ . - * X I n H #.#.e   H         m.B.S X X @ & @ O O ",
"n < > z y.n e & H $ M q.K.' x #   0X& ( & ( H J n $.;.B l #.X.# - 7.e $ g D z k * D E e > M.h l   R *         @ k & > 4 & S 3 & ",
"T $ - 3.h @ e . z g M a.s.s.H.9.8.OXL.*.  G U U n X 0.y.c 0 #.& - 3.k X e l k l > k H g r `.k H - H - @   . K & k > > l X l T y ",
"* > - 5.h - H X z $ q a.f.a.a.9 < 3.k h . J U H m l @  .V.n o.9 ; o.e   g I D z X > R X @ Y.; & ) $XM.> $ D 3.. z X , z - k R r ",
", > , T e.h * 2 D : q q.f.a.<.% $ S.X g   R U I H B m . I  .O.6 : $.z & < ; > 3 . X T ; @ M.* > z S.#.0 - o.E z z . < H e h H U ",
"> X T , I w.G > D > x u.s.s.d.>.4.M.V.o.$ I I H z z I H ; n } ; : Y T > 0 0 < , & l #.X X , . < -   , g h z h R n $ l X.$.z z 0.",
"2 > & - # % & r l X p d.t.p.t.7 * X < n h U H H T n L H J n O.; ; E , # k H K D > D I , $ $   < ; < ; h g j 3.x H   e K e H U - ",
"2 = & e u   n : 3 > e 0.j.t.<.;     $ K ; U H H H k e H H n X.% ; X.L * k l z l @ ; 3., * < R e 9 H : h ; I w.l H $ , l * 0 j p ",
"= < 4 g H * q h z 4 e } s.J.>.$       r $ H J H H * * H H H o.; : #.L e G b r l , e $.H U V.R g b J n h : R I l h * , 3.n . R h ",
"@ > X > i 6 O.3.E g ; J d.g.:.$ X 4 l H 9 U H H H e e K l l J ; ; U y r . $ $ $ y 7.o.3.U $.e m n X.n 9 , R I h H & < n A.% r A.",
"  X g j #.. V  .c - $ r.>.m J.U T `.D r ; H J n n r l H m I $.; 9 o.R 3 r H h l , J J h e $.9 ; c B c a : m z z h ; 9 p , H l e ",
"  D $XS.A.).y.:.c : * N.x % O.R 4 l 3 n ; X.J n n n R I H l X.; $ U > . l H b H # , R $ Y M.U X.c U m a ; g R l m ; < g ; I H < ",
"X S.3.    Z.8. .; z z 6. .h 0 9 0 0 , z $ w.[.7 l b U l $ h U , * #.e X 4 T E j * l E g I M.L E n c J 7 6 v 7.9 c - < h , l n g ",
"h T > X 4   R , e g $ I I 0 c 3.o.< - > , H }.0.0 n ; < n R X.; % 8.e X 4 D j j & #.6.l h T.e r I 9 } h 6  .U 9 l < , l < e H 8.",
"g 7.X - g - ) . . g & E H $ 9 O.;.X ; k , R r C.h $ x U H I n ; - 7.< $ > g g g $ , *.> X l k , I :.} 0 * R 4.X.H & 9 z , e n E ",
"0 n - 4 D X H l ; l X E E   ; 5X_.X > g & E x U {.c H m H U 0.; $ 3.l @ , S l j & $ $ & $ $ - ; h o.I 9 # ; J H , % 0 h , < U & ",
"0 $., > T T 8.e $ n & R E $ e m . . 2 3 * X.X.6 r.5X[.J m U X.9 , M.4 X 3 k S T * &   > U Y I $ X 3 X X l 4.9.e.:.r - H - $ h h ",
"x S. .7.8.8.l < #.#.R R R l m n X . 2 * , X.X.} m } n J x } X.; * ) 4 & + . g S X &   $ E 4XV.X       X 3.e ; ; h 3.& e ).2X#XW.",
"q x A.M.r 4 I R U E H E n 0 h  .U ; 3 3 $ $.O.} o.m $ P.n v n 9 >   > X @ 1 - > + + e z Y j $.;       < < , * 9 . J L   7.}.7.3 ",
"q 4.l l H r M.0   h   ) U X 9 5X_.X & , ;  .O.J O.U . R  X:.J , >   + X     + . o + T R Y 4.3.-       , D H #.( n h 4.x   o.& . ",
"q I.% l M.#.l r M.#.E ( R   r U - > ) K % U 3.R  .I .   4 ).#.& >   + + o   >   @ 2 S 4.I #Xe.g @ o   & 4 e G r < u j A.9 ; e.9 ",
"q w.e.I < $ n k U E k 7.E $ x m .   + r # U  .n  . .# .       $ ,   & >     @   X 3 + m.g : : 4.  = O             * g m 8.; 7 5.",
"h J.0 ; z . w.l & g . E R 0 r B c g * L ; 6  Xi.n I .       $ h z g - X =       . & X O . , R #.4 2         - 8 $ .   . w w.- 0.",
"8 U $ < 8.6.H e h l , $ e h 7 #X XU m.L x . $ {.5X4.G $ , A.U.L.P.P.A.g - E %.) 6.%.%.3 $ m b t 6.X y k e C.V.e.M.M.;     H $.3.",
"6 3.4.3.z X r , , l # E K h v C.E . & ; I.^.a   w.H #.R P.H #     . H [.E H ) ) ( E ( , o.0.R y T H > l D.I     @ R 5.: $.D.U 9.",
"h I.H $ k @ J $ * h < U.l r m r   > * H C.q.^.9.. # % x e   * 1 * %   * T @ X   @ @   X :.:.n h & < & y y..   O & @ 0.7 h , r 0.",
"7 x e , I & U l e h > b , x m m %   . r r.}.' K.I.% u u . # $.L.L.m.3   > e k k R 3.. ;  .-.B h 9 e & r y.: ; l y X e.- . # v 0.",
"7 P.h < H > H e e l & U * r h I H H h R x qX<X-.H.x N.X.9 % 6 M J i % * l A.r X m #X@ , 4.;.v ; I L $ e e.7 p U e $ 5.%   * U >.",
"6 r.h % n % U $ $ k > ( , 0 0 ,X.XE *.*.6 $ qX#X9.' H.+.+.=.q X.X.r M ' n r.o.0 r 3.% $ h D.$ ; e 0 * r q.7 N O.0 - 0.0 ;.P. .4.",
"9 m e.} O.} ..;.B   > l , a h r.B . # # N.h . [.O.+.a.d f.:X% 9XrX6 f.p.{ d.#XH.R X.o.r 8.#.X X.$ e & y r.8 H.{.h $ r.q I 9 x w.",
"7 !.<X:X=X=X&X&X<X5.h w.h 9 b a   , X.$.L yXe   7 } s.d Q.:X6 iXsXd a.:X[ f.'.o.n m o.[.8.  q C.M.; $ y 9.a % 4 l % r.;   $ h 0.",
"6 ..K.K.K.s.K.K.K.e.N.C.w.6 x m %   # +.b L yXw $ +.s.@.;Xk.d [.>Xd ,.:Xk.j.x 6 x x 9.'.x $ 7 C.5X. & e r.q - r e ; e.$ . H O.>.",
"n e.7.9.7.:.9.4.4.3.Z.n . h c :.R < 7 } U.* H 2X3.} h.1.;Xk.M 9.<.v a.*Xp.1.x . X.#.m x 5.h 0 O.:.; > r w.q 0  .r ; N.; $.M.m 0.",
"X - * , , - ; ; ; > > X   g h ;.;., 7 9.#.6X& % U v q.p.;X:Xd 7XwXd ,.*Xs.2.>X&.* R 0 X.5.s h o.;.h > y 0.a B  .e , M.0 H , a <.",
"@                 @   @   g j :. .8 x 4.R R 6X$ $ U >.1.:Xk.i aXdXv @./.p.q.9 . 0 H g h H - 0 o.:.p X e M.8 Y Y u * M.*   $ V 5.",
"= @   + 2 @ - @   2 +     z j 7. .n L.9 R l H U.o.m 2.,.f.,.M wXtX} { j.j.q.x # j z c o.m - 7 o.Y p * O 9 ; Y ;., , & > H Z.p 4.",
"= o . 2 e X Y <   T =   @ y r l j B r .   H e - o.' :.s.j.,.v :X:X} | f.j.1.E.E.9 B 0 0. .% 0 $.o.; <     h 0.].S.U $ t > * h I ",
"= 2 + & - , 3.Y   l >   . y # ; - m M X.* 6.k $ h U ..s.j.>.6 >X7X% @.k.d.>.E...; m q 0.} 6 q m e & * * 0 < s U B $ @ >   * b   ",
"+ 4 S $ * ; e.R   b #   . S % $.h x U r.$ l e.h #.X. .f h.<.# uXpX# | K.} n 5.g C.r H 4.o.O.>.v c g . h e h s . - E 4 D z e h & ",
"@ 3 T * i & w.U   H O   G u % J x B N e.,   g h ; 9 9 n ^.9.# *.H % | |.o.< @ > K   r J e.O.<.v n < e h $ 4.i.i.u.8.$ 3.3.9 $., ",
"X H M.9 m x A.4.- n > H g h 7  .V x m 9.0 X - O.H # . r H 4.2 D H X X.} y         . 3 * x o.0.N g & b R H V.,XH.C.X & > e 4.#.> ",
"$ I w.9 n O.>X>Xh l k U.$ B  .J.r.V ' 9.e < Y J.H   w e   * & 3 , > & .   & @   F =   . D  .1.N h - *   ; h e.#X, . > 4 S.M.# y ",
"@ n e.7 x m % } 0 c & e , e l o.m x q 4.< <  .0.R ,   S #   * @ = . .   , z   @ S.g l , l $.,.v a < w.b   p 0 r   2 H X 7.o.; E ",
"h B e.8 n U q.q.7 n $ t * > n $ c n q 3.l : c >.U ; $ H *.3   @ X @     l h   @ z p I $ l X.<.m h , X.r $ U , 9 % H g #.E ,  .O.",
"6XW.y.].L.J 9.v m m H r y w n m x J a O.u e ' r.O.q - n 7.c @ + $ # H 6.O.} :. .B I l $ v  .>.m s < o.g p :.- 0 z z S.R e &.X.; ",
"h I y.j r R M { !.q.H.M.G & ; O.0 v f :.r i +.f.V 6 9.V  .c $ & &   k h M } c h  .h U , j  .K.O.a 9 Y p e &.0 g ; y.0 0 e.n i 9 ",
"  H u.$ % } t.j.l.8X4X:.; e .  .h c N -.M x J T.n n e.a ;.B X $ X &   @ m  . .n U h J x n ' H.x x a 3.J # * l # 0 h   u.X.# 9 m ",
"# z e.% % } R.s.-.s.|.(.% U U P.e.V N -.# r r N.o.R   g O.I $ . . + X 3 } 9.R 9 e.} * r  .o.O.h x 6 r.J # # t # R 0 # e.m % w.D.",
". L y.; H $  .0.U m H r & 0 H X.J a h u.B % . % h H , , J E $ $ > $ & g - q H & L.e.o.9 r l #.n v g.rX5Xb r l e H % ; 8.h :.,X .",
"# n H.- ; #.; - -   , $ $ $ b % ; m ; H.H.O.; .   H 3 3 b , $ & H , @ , r e < < ; x b r   K #.0 m qXdXpX0.n H 0 l $ < 3.i.#Xz z ",
"J  .e.e.9 J J.H.e.M.M.0 u.m m m m } ; X u.E.9.p . D r , 9.a     E - p g H 3 > ; w } q r   b l l x o., U n 0 b 0 I < * #.7.h ; l ",
"$ q h (.[.D.D.V.A.A.C.P.h.q.q O.U x l ; @ ;.^.u., k l < n V .   Y : < < R l e & 7 M J n @ l , 4 < m   9 n 0 H ; k g < z . & D H ",
"> < - > , e r e e e 9 h J.!.N N 0 H K k .   q W.e < k < U I # . o.o.X t R R z - N `.n r X l 4 4 ; T   4 l 3 I - n 0 ; 6.H   &.C.",
"= + 2             @   . ] -.:.O.J H r X . 9 % U M.#.I n  .U w 2 X.$ * e x R z X :.eXh < > k 4 4 4 S   4 S 3 T 3 H > 3 m.z T w   ",
"> > > l l . % w w # % } -.d d O.U g ; #.[.}.).M.V.h k U ] B H y R 9 # e u  .H - s -.m 4 1 Q 5 F 5 W o Z F Z W 1 ^ 5 2 m.T @X& & ",
"> 5 X 7.n V U.I.T.N.7 9.C.m h X.I j = #., n J b h h ; ;  .B e 4 $.X.* e m  .z - : a z t ^ v.Z F v.W v.x.W F v.^ c.^ c.m._ oX` & ",
"= 2 2 @ a g...v N 0.e.. h ;         e j n r 9 &.H a I b U R D > E , $ 0 O.x x n :.4Xh w z.n.G.F.v.G.%XXXc.P c.! b.c./ F.b._ y #.",
"= @ 2 n ^.^.K.!.!.R. Xe..           - E o.. . # OXuXl $.# * y l I ; - n m r #., :.5XI y C z.oXB.O W   t 5 1 A t P A 1 F.~ S Z.X.",
"@ + . #.!.h.K.K.K.R.J.(.>     @     X ;.0...@.} x u o.I   & k k 3.6.  w X.M b $ 0 s H #   G X.h . K & l l t y * L # . B.B.U.l   ",
"      & | { ' | ' |  .b @       . @ X j J.=X&X|.9.X.].n   . 4 , : X   & b J r   0 % %   . w  .c $ H   r r e , y u   $ k T ,   . "
};
