/* XPM */
static char *de678f32a4f54b6dc7fab5ba734b3545UN9uGZregLcvXRUq[] = {
/* columns rows colors chars-per-pixel */
"64 64 69 1 ",
"  c #030303",
". c #0C0C0C",
"X c #141414",
"o c #1B1B1B",
"O c #242424",
"+ c #2B2B2B",
"@ c #343434",
"# c #3C3C3C",
"$ c #434343",
"% c #4D4D4D",
"& c #545454",
"* c #5B5B5B",
"= c #646464",
"- c #6C6C6C",
"; c #747474",
": c #7B7B7B",
"> c #838383",
", c #8B8B8B",
"< c #949494",
"1 c #9C9C9C",
"2 c #A3A3A3",
"3 c #ACACAC",
"4 c #B4B4B4",
"5 c gray72",
"6 c #BBBBBB",
"7 c #BCBCBC",
"8 c #839FE4",
"9 c #A188E9",
"0 c #A794E4",
"q c #A996E3",
"w c #AE9EE2",
"e c #8BA4E3",
"r c #95ABE2",
"t c #96ACE2",
"y c #9AAEE1",
"u c #B2A3E2",
"i c #B7AAE2",
"p c #A1B3E2",
"a c #A3B5E3",
"s c #A4B5E2",
"d c #BEB3E4",
"f c #C1B6E4",
"g c #C7BEE6",
"h c #D7B7E6",
"j c #D9B7E7",
"k c #B3C1E5",
"l c #BAC6E6",
"z c #C3C3C3",
"x c gray78",
"c c #CBCBCB",
"v c gray81",
"b c #D0D0D0",
"n c #D5D5D5",
"m c gray85",
"M c #DDDDDD",
"N c #CBC2E7",
"B c #C3CFE9",
"V c #D4CDEB",
"C c gray89",
"Z c #E7E7E7",
"A c gray92",
"S c #ECECEC",
"D c #E8EBF5",
"F c #F1F1F1",
"G c gray96",
"H c gray98",
"J c #FBFBFB",
"K c gray99",
"L c white",
/* pixels */
"LLLLLLLLLLLLLLLLLLLLLLLLLLLLHHHLLLLLLLLLLLLLHHLLLLLLLLLLLLLLLLLL",
"LLLLLLLLLLLLLLLLLLLLLLLLLLHLLLLHv1:=&&*->4ZLLLHLLLLLLLLLLLLLLLLL",
"LLLLLLLLLLLLLLLLLLLLLLLLHLLLC5*O+$-><<,;*@O@:mLLHLLLLLLLLLLLLLLL",
"LLLLLLLLLLLLLLLLLLLLLLLHLL2+.O-cLLLLLLLLLLZ3&O%7LLHLLLLLLLLLLLLL",
"LLLLLLLLLLLLLLLLLLLLLLHLC#O>xLLLLHLAGLHHHLLLLA,+$zLLHLLLLLLLLLLL",
"LLLLLLLLLLLLLLLLLLLLLLL2X>LLLLHLLLL<FLLLLLLv<LAc1O%nLLHLLLLLLLLL",
"LLLLLLLLLLLLLLLLLLLLLL-ocLLHHLLLLLL7CLLLLLLL*nM,LH>o-LLHLLLLLLLL",
"LLLLLLLLLLLLLLLLLLLLL$#GLHLLLLLLLLLLLHALLFLL3-LvCLLZ&OxLHLLLLLLL",
"LLLLLLLLLLLLLLLLLLHL$%LLHLLLLLLLLLLLLLGLLn5LG&Lc,5SLL3X,LLLLLLLL",
"LLLLLLLLLLLLLLLLLHL<OLLLLLLLLLLLLLLLLLLLLLn4L>nc:3LCGLAO=LHLLLLL",
"LLLLLLLLLLLLLLLLLLLO3LHLLLLLLLLLLLLLLLHLLHLxnb7SCL>3LHLL+;LLLLLL",
"LLLLLLLLLLLLLLLLLL5OLLLLLLLLLLLLLLLLLLLLGLGL3v5LL<5LLLHLGX2LHLLL",
"LLLLLLLLLLLLLLLLHL%>LHLLLLLLLLLLLLLG2<3L7xLLH2xH4nLLLLLGLzXFLLLL",
"LLLLLLLLLLLLLLLLLZoZLHLLLLLLLLLLLLLLLZ5:M&<LLF<<7LGHLLLLHL=&LHLL",
"LLLLLLLLLLLLLLLHL,$LLLLLLLLLLLLLLLL53bCM2c *nL3*LLLLCFLLLLFocLLL",
"LLLLLLLLLLLLLLLLL#1LHLLLLLLLLLLLHL213,SAmn, *Gv=3Gx*$CHLLHL>$LHL",
"LLLLLLLLLLLLLLLLMOALLLLLLLLLLLLLLL5Lo ,LcnM&2xHLx% &23cMLLLAoMLL",
"LLLLLLLLLLLLLLHL<$LLLLLLLLLLLLLLLLML,@5FxLF =LH4n>>H7m7cALHL&>LH",
"LLLLLLLLLLLLLLHL&,LHLLLLLLLLLLLLLLFACzM3ML**:3mAn&4,<GvZMLHL3@LL",
"LLLLLLLLLLLLLLLH+bLLLLLLLLLLLLLLLLZbz<4Gn>3Lc3m4Mv:5L* ;ALLLFOML",
"LLLLLLLLLLLLLLLv+LLLLLLLLLLLLLLLHL5:-:23zLLHHFLCFC1<L:X:FHLLL$2L",
"LLLLLLLLLLLLLHL<%LHLLLLLLLLLLLLLLnSLLLLLLcnLLLHLLH-7xbnvZLLHL-;L",
"LLLLLLLLLLLLLHL--LHLLLLLLLLLLLLLL7<LAn2,-5LLLLLLHL,,FcZSLLLHL,&L",
"LLLLLLLLLLLLLLL&>LHLLLLLLLLLLLLLLLHLM>;2ZLL,3cLLHLv<GCALLLLLL1#L",
"LLLLLLLLLLLLLHL&>LHLLLLLLLLLLLLLLLLLLLLLLGL;oO-FLLA-LLGHLLLLL3@L",
"LLLLLLLLLLLLLLL%,LHLLLLLLLLLLLLLLLLLLHHLHLH%1:$&7ZL5>LLLLLLHL3+L",
"LLLLLLLLLLLLLHL&>LLLLLLLLLLLLLLLLLLLLLLLLLb-LLL2,xSZ$SLLLLLHL3@L",
"LLLLLLLLLLLLLHL*;LHLLLLLLLLLLLLLLLLLLLLLLL7O<<cLLLAFvSLLLLLHL<$L",
"LLLLLLLLLLLLLHL-=LLLLLLLLLLLLLLLLLLLLLLLLL24C2%2LGLLAmLLLLLHL,&L",
"LLLLLLLLLLLLLHL>*LHLLLLLLLLLLHSLLLLLLLLLLF,LLLL&MLLL<GLLLLLHL;-L",
"LLLLLLLLLLLLLHL2$LHLLLLLLAHLLHCLLLLLLLLLLS2LCnL,.&;+2LHLLLLHL&,L",
"LLLLLLLLLLLLLLLz@LLLLLLLLzSLLLLLLLFSLHLLLS,# Xv>@= +LLLLLLLHL#5L",
"LLLLLLLLLLLLLLLZOALLLLLLLLLLLLLLLLZZLLLHLm. #5bzxZ-<LLLLLLLLF+mL",
"LLLLLLLLLLLLLLLL+zLHLLLLLHLLLLLLLLLLLLLLLS#+nLv<:n3 ;LHLLLLLvOHL",
"LLLLLLLLLLLLLLHL&>LHLLLLLLLLLLLLLLHLLLLLLZ-S5&;;O*F#:LHLLLHL1#LH",
"LLLLLLLLLLLLLLHL,%LLLLLLLLLLLLLLLLLLLLLHLzzx-;z2<<4,3LHLLLHL--LH",
"LLLLLLLLLLLLLLHLnOFLLLLLLLLLLHnLLLLLLLLLL-&#>,7v<=m*vLLLLLLL@3LL",
"LLLLLLLLLLLLLLLLL#1LHLLLLLLLLH7GLLLLLLLLS&$.  #$,2<.ALHLLLLmoSLL",
"LLLLLLLLLLLLLLLLL4+LLHLLLLLLLLLLLLLLLLHL3;-&@;>*X&:2ZLLLLGL-&LHL",
"LLLLLLLLLLLLLLLLHL$=LLLLLLLLLLLLLLLLLLLLCLZx,4<=-,,LMLLLHLMXCLLL",
"LLLLLLLLLLLLLLLLLLZO:HLHLLLLLLLLLLLLLLLHLLLFmnvccF,GLLLLLLO,LHLL",
"LLLLLLLLLLLLLLLLLHL- ovLHLLLLLLLLLLLLLLnc51nLLLLLAxLHLHLL#*LLLLL",
"LLLLLLLLLLLLLLLHLL-o5:X<LLHLLLLLLLHL5AG7%$=$&2nGL>,LHHLH@&LLLLLL",
"LLLLLLLLLLLLLLHLL&+SLLm$#vLLLHLLLHL3<Lx,LLHZ4:**;5=GLLco-LLLLLLL",
"LLLLLLLLLLLLLHLH#$LLLHLL<+&bLLLHLL2-LL-nLHLLLLLGHL:4F=o2LHLLLLLL",
"LLLLLLLLLLLLHLZO*LL;<LGLLH>+$4GLL=&LLAvLHHHHHGHLLL:.+;FLHLLLLLLL",
"LLLLLLLLLLLHLxX>LLLb 2LHHLLH<$+&#+LLLLLLLLLLLLLL7&@,SLLHLLHLLLLL",
"LLLLLLLLLLLL<.3LHLLLb 5LHLHLLLn>%#@#&-:,22<,>=%#%2HLLHLLHLLLLLLL",
"LLLLLLLLLLL-onLHLLLHLz.cLHLLHLLLLHm5<:-&  +@$=1MLLLHLLLLLnbSSLLL",
"LLLLLLLHLL$@GLHLLLLLHL4XmLHLLLLHLLLLLLL1 xLLLLLLLHLLLLLC;*#&5LHL",
"LLLLLLLLL#&LLHLLLLLLLGL3oMLHLLLLLLLHHLc.@+ZLHLHFLLLLLLLL=  o;>LL",
"LLLLLLLL%$LLLLLLLLLLLLHL2oMLHLLLLLLLLLO2L;XxL*S&cSCLLLGLz O o5LH",
"LLLLLHL,oLLLLLLLLLLLLLLHL2XMLHLLLLLHL=&LHL3o1O1@5;:LGLL5X2LbFLHL",
"LLLLHLn.nLHLLLLLLLLLLLLLHL2XmLHHHHGL5OLLLLL=  . $OzLLL:X5LLLLLLL",
"LLLLLLO,LHLLLLLLLLLLLLLLLHL2XbLLLLLAX:v<:%O#>XO- O$Mn@$ALHLLLLLL",
"LLLHL*$LLLLLLLLLLLLLLLLLLLHL2.5v,*&X ++$=<mLLC+<m>:-o<LLHLLLLLLL",
"LLHL>oGLLLLLLLLLLLLLLLLLLLLHL4XO&<$.nGLLLLLLGLSO;1@*ALHLLLLLLLLL",
"LHL2.CLLLLLLLLLLLLLLLLLLLLLLHLAGLL#1LLLLKHLLLHLH$#xLLHLLLLLLLLLL",
"LLv vLGLLLLLLLLLLLLLLLLLLLLLLHLLL3+LHLLLLLLLLLLLLLLHLLLLLLLLLLLL",
"LLO>LHLLLLLLLLLLLLLLLLLLLLLLLLLLL@3LHLLLLLLLttBsysrlsp8sapekrDLL",
"L5oLLLLLLLLLLLLLLLLLLLLLLLLLLLHL1#LLLLLLLLLLu9LuuiugVNwd0gqfuLLL",
"L%:LHLLLLLLLLLLLLLLLLLLLLLLLLLLFo7LLLLLLLLLLLjLLLLLLLLLLLLLLhLLL",
"L;MLLLLLLLLLLLLLLLLLLLLLLLLLLHLx,LHLLLLLLLLLLLLLLLLLLLLLLLLLLLLL",
"LLLLLLLLLLLLLLLLLLLLLLLLLLLLLLLLLLLLLLLLLLLLLLLLLLLLLLLLLLLLLLLL"
};
