/* XPM */
static char *_9080d801eb04d0ed59b10802a2c1fd26aj7nfaxJHEaryej[] = {
/* columns rows colors chars-per-pixel */
"64 64 245 2 ",
"   c #1A0704",
".  c #1C1708",
"X  c #230806",
"o  c #241404",
"O  c #2C1503",
"+  c #2D1A03",
"@  c #24150A",
"#  c #251C0D",
"$  c #2B1B0A",
"%  c #251807",
"&  c #331C04",
"*  c #341E09",
"=  c #3A1E0A",
"-  c #351A03",
";  c #271D14",
":  c #1C2105",
">  c #232609",
",  c #352107",
"<  c #3A2205",
"1  c #36220A",
"2  c #3B230B",
"3  c #3E2A0D",
"4  c #2B2715",
"5  c #3C2513",
"6  c #3D2913",
"7  c #3E2B1A",
"8  c #392514",
"9  c #303818",
"0  c #352C25",
"q  c #39362A",
"w  c #3C3734",
"e  c #2B2923",
"r  c #42250C",
"t  c #43290D",
"y  c #49290D",
"u  c #422612",
"i  c #432B13",
"p  c #4A2D14",
"a  c #442D1B",
"s  c #4A2E1B",
"d  c #4A2612",
"f  c #4C3115",
"g  c #46311B",
"h  c #4C331B",
"j  c #493519",
"k  c #52351C",
"l  c #543A1D",
"z  c #5B3B1D",
"x  c #563618",
"c  c #442E24",
"v  c #4C3423",
"b  c #4D3923",
"n  c #443A2E",
"m  c #473729",
"M  c #523522",
"N  c #543B23",
"B  c #5A3D23",
"V  c #553D2B",
"C  c #5C3E2A",
"Z  c #573728",
"A  c #443C34",
"S  c #463D38",
"D  c #523C3A",
"F  c #613E26",
"G  c #733732",
"H  c #36421C",
"J  c #3D442D",
"K  c #5E421F",
"L  c #6C461F",
"P  c #5C4224",
"I  c #56412A",
"U  c #5D432B",
"Y  c #584427",
"T  c #47433A",
"R  c #5D4532",
"E  c #5E4A33",
"W  c #574A3B",
"Q  c #4C5434",
"!  c #56593B",
"~  c #454E2E",
"^  c #634424",
"/  c #694525",
"(  c #654924",
")  c #6C4B26",
"_  c #62452B",
"`  c #654A2C",
"'  c #6C4C2C",
"]  c #68462A",
"[  c #724C26",
"{  c #724E2B",
"}  c #704727",
"|  c #6D522C",
" . c #6A5327",
".. c #74532D",
"X. c #7B542D",
"o. c #7D5A2F",
"O. c #74552B",
"+. c #644B33",
"@. c #6B4D32",
"#. c #674838",
"$. c #724E32",
"%. c #724B3A",
"&. c #6C5233",
"*. c #65513A",
"=. c #6C533B",
"-. c #6C573A",
";. c #745433",
":. c #7A5632",
">. c #765834",
",. c #7C5A34",
"<. c #73553A",
"1. c #755A3C",
"2. c #7D5C3B",
"3. c #7C5739",
"4. c #57673A",
"5. c #54742D",
"6. c #7D613D",
"7. c #78603A",
"8. c #5D3D40",
"9. c #4C4A43",
"0. c #4B4946",
"q. c #564B46",
"w. c #585449",
"e. c #5C5954",
"r. c #4B5741",
"t. c #674948",
"y. c #724942",
"u. c #655443",
"i. c #6B5243",
"p. c #6E5A42",
"a. c #6C524B",
"s. c #66594D",
"d. c #735443",
"f. c #745C45",
"g. c #7A5D42",
"h. c #74544C",
"j. c #735D4A",
"k. c #7A564A",
"l. c #665A54",
"z. c #795954",
"x. c #714E52",
"c. c #7D6243",
"v. c #75624B",
"b. c #7C644C",
"n. c #7A6549",
"m. c #666456",
"M. c #7C6453",
"N. c #7E6954",
"B. c #786757",
"V. c #706B56",
"C. c #796D62",
"Z. c #795561",
"A. c #932A2B",
"S. c #9D3235",
"D. c #893433",
"F. c #AF3537",
"G. c #C33538",
"H. c #825C34",
"J. c #825D3A",
"K. c #815633",
"L. c #846136",
"P. c #84623C",
"I. c #8A653C",
"U. c #8C693D",
"Y. c #896337",
"T. c #926B3E",
"R. c #AB443D",
"E. c #B63D42",
"W. c #CF3D42",
"Q. c #885749",
"!. c #B04242",
"~. c #846442",
"^. c #896541",
"/. c #846A46",
"(. c #8B6A43",
"). c #82664A",
"_. c #846B4C",
"`. c #8B6C4B",
"'. c #91704D",
"]. c #846C53",
"[. c #846D5A",
"{. c #896E5B",
"}. c #846853",
"|. c #8D7355",
" X c #8A7259",
".X c #947654",
"XX c #947A55",
"oX c #91765C",
"OX c #957A5C",
"+X c #997C5C",
"@X c #90744C",
"#X c #A17F5C",
"$X c #887766",
"%X c #947C64",
"&X c #9A7E64",
"*X c #977A65",
"=X c #8B7769",
"-X c #A07F60",
";X c #DA4E53",
":X c #E94B52",
">X c #FF6F75",
",X c #E75D62",
"<X c #568728",
"1X c #56872C",
"2X c #649534",
"3X c #4F861E",
"4X c #74C13F",
"5X c #7BBD46",
"6X c #669342",
"7X c #74C042",
"8X c #9C815A",
"9X c #A2835F",
"0X c #9C8164",
"qX c #9C836B",
"wX c #978366",
"eX c #8D8472",
"rX c #958676",
"tX c #A18465",
"yX c #A2856C",
"uX c #A4896D",
"iX c #A98C69",
"pX c #A48B73",
"aX c #A98C73",
"sX c #A48A76",
"dX c #AD9276",
"fX c #A6927C",
"gX c #AC927B",
"hX c #A49279",
"jX c #B2967C",
"kX c #B3997D",
"lX c #B79A7B",
"zX c #80B950",
"xX c #8BD74C",
"cX c #8DDA53",
"vX c #8FCE54",
"bX c #9CEE5B",
"nX c #A5F564",
"mX c #A0F359",
"MX c #9B9082",
"NX c #A99785",
"BX c #B39A82",
"VX c #B79B84",
"CX c #BDA183",
"ZX c #BCA38A",
"AX c #C1A387",
/* pixels */
"F x p h g v I V C s v a u _ B ^ ) z B V F C U U U k B Z U _ ^ z F x p h s v V B C a M s u U z ^ ) K B B C F C _ U M l B U _ ^ z ",
"z @.&X&XwXqXqX0X&XyX%XwX&Xb.P ] ^ ;.qXuXaXaXqXOXyX0XtXtXyX XB / z ' 0XqX=XqXqX&X0XqX=X*X&X).P ] K ;.&XyXuXdXyXoXyXyXtXtXqX X^ K ",
"F CXuX]._.n.8X@X+XXXoX].|.).f B _ jXdX0X-X0X0X|.uXXX9XiX+X|.p M F AXyX_.]._.8XXX8XXX|.]. X).f F _ jXjX&X0X9X0X|.uX+X8XiX+X|.f z ",
"B b.1.1.Y E  . .;.| &.Y &.;.f f ] ].1.).(.2.&.` 1./.P.U.6.).B d _ ).<.p.Y Y  . .;.&.&.` &.-.f f _ ].c.).(.7.&.` 1./.P.(.7.~.Z d ",
"M i h b h g l P P P k s N h u U +.p v _ ` z b h I K l ( U P i Z M i h V j j l Y P P k p N h u C +.d k _ _ B b h N B z ^ E B i k ",
"M s u 2 8 6 h p r d a a i t M +._ U s d j h a u 6 + p k h h k h v h 5 1 6 8 j f r y p a i u k @._ C p i h h a i 6 * p k h k M f ",
"Z M u b v a V V B C F _ M k +.` ` P C F C _ k M h g k _ _ _ @.l M k i b v a I B Z C C _ l k +.` ' P P C C _ M M b j k _ U ^ ;.l ",
"h +.%X X[.{.qXuXqXyXuXyXuX_.^ ` ' ;.&XsX-X&XpXyXpXqXaXtXuX`.z ( s +.%X X[.[.&XpXyXyXpXyXyX_.P ` ' &.0XuX&XyXsX&XyXqXpXtXuX`.l ( ",
"P gXuXn.b._.OX0X.XXXuXXX9XXXz _ ^ aXlX'.#XtXoXoXOX+X+X.X9X.Xz k B jXuXc.c.).OXtXXXXXiXXX9X.Xz ` ] iXjX'.-XtX+XoXOX+X8X.XtX.Xz x ",
"+. X' ^ ` ( >.P.,.,.U.O.{ ;.K k P oX,.[ { 2.1.;.;.>.,.,.[ ,.x p @.oX+.( ` ^ >.6.,.,.(...' >.B k ^ OX,.} { 2.;.;.;.;.,.,.[ ,.l f ",
"U  X;.&.| z ;.P.(.H.Y.L.(.2.f i #.*X`.~...;.:.2.2.P.,.Y.P...p M U oX&.' ;.K :.P.(.o.I.P.(.J.f i +.oX`.^.:.;.$.2.2.~.K.L.J.;.p k ",
"U OX@.' ;.) P.(.U.o.U.L.U.J.f f F +X(.X...J.J.$.:.;...X.J.:.h d U OX@.' ;.` P.P.U.o.I.L.I.J.f j U oX(.K...J.2.:.;.:.X.,.H.>.k u ",
"P |.' J.{ ] J.(.,.,.H.I.(.,.k l _ *XP.[ K.K.J...{ ..X.K.X.~.z 2 U .X' P.{ ' 2.(.o.L.H.Y.(.J.k l +.OX~.{ K.X.J...[ X.o.K.X.~.z 2 ",
"P |.^ ;./ ^ ..2.:.Y.Y.K.,.,.f h U OX^.K.:.{ X.K.X.H.Y.H.I.Y.f t U |.^ $.^ ^ ;.P.O.L.J.:.H.,.f h U OX^.X.K.{ :.K...H.Y.H.I.I.f u ",
"_ oX;.' ] ] ..2...{ P.(...;.p U *.OXJ.[ { H.X.X.X.K.J.K.H.J.f i U OX;.@.] ^ $.3.>.[ P.(.X.;.a B *.oXJ.[ [ K.X.X.K.K.Y.K.H.7.k i ",
"#.}.+.;.$.' ;.(.:.,.K.I.2.<.u N R .XY.K.K.X.X.X.X.H.H.Y.U.P.l j @.].] ;.$.$.:.(.:.,.J.U.,.;.i N +..XY.K.K.X.X.X.X.K.H.Y.Y.(.k j ",
"@.].@.] $.{ :.P.U.U.2.~.~.] u s _ OX/.U.O.H.I.:.K.J.H.Y.U.2.x f @.|.@.] ;.{ X.P.~.(.2.P.~.` u s U OX^.U.O.L.L.:.H.H.Y.Y.Y.P.k i ",
"_ oX<.1.) } O.P.P.,.,.J.1.+.2 s M yXP.O.L.U.J.J.J...{ Y.,.~.x l _ |.>.1.' / O.P.J.,.2.2.>.' = p k tXP.o.L.I.P.L.J.X.[ L.o.~.l l ",
"^ `.1.1.,.^ O.P.,.:.P.;.>.1.p p ] tXP.O.,.P.(.J.,.O.,.L.H.2.p y P `.1.>.2.^ O./.K.;.P.;.>.1.p h ` 0X~.;.P.L.^.J.,...H.J.J.,.f y ",
"' l ` @.;.P ` >.1.P &.@.g._ = f ] +.` >.O.( J.3.;.2.,.O.O.' p l ` l +.@.<.^ ( >.1.^ &.&.c.P = s +.+.` >.| ( 2.1.$.;.J.;.;.&.p k ",
"Y j 2 * 6 * 2 5 * $ * & , & + 6 b u 2 u < & < < < < r t t u i B U h 2 1 6 & 2 3 * & * & 1 & $ a v u 5 u 1 + 2 2 - 2 r i t u u V ",
"c.c.u.R E R *.u.#.R *.i.+.*.*.j.p.*.+.V R *.-.d.#.@.=.=.+.-.f.d.v.v.i.E E R +.*.+.E *.-.+.*.*.j.j.*.+.I E *.-.p.=.+.=.=.@.-.j.j.",
"lXCXdXjXVX&XqXVXgXsXhXgXdXkXuXdXBXdXgXgXBXjXVXCXVXCXlXVXdXAXAXlXVXZXgXgXBX&XuXVXgXpXaXgXdXjXsXgXBXaXdXdXjXjXkXCXVXAXlXlXdXZXCXlX",
"P.7.2.g.1.@.@.b.=.@.g.| /.`.] &.;.1.~.<.1.1.c.2.~.~.).<.~.~.J.~.P.2.g.g.1.&.@.2.&.*.1.' _.`.@.@.;.>.g.1.1.>.P.7.P.P.(.;.~.^.P.I.",
"(.;.O.>.,.c.2.( | 1.| | P.6.:...) >.2.>.;.;...,.,.6.,.:.;.J.I.(.(.X.;.;.2.~.1.( ` 1.| ..P.6.,...O.,.6.;.;.>.O.,.,.L.K.,.;.J.Y.U.",
"U.,.:.;.:.6.O.;.O.O.O.| L.,.O.>.>.O.' ) 2...) O.O.| :.>.:.:.H.U.U.,...:.,.2.;.;.| >.>. .6.:.....O.O.) ] 1.| ) ..O.) :.;.:.,.H.I.",
"J.2.,.] 6.^.(.P.,.,.,.;.`.P.;.' ,.:.{ ;.2.;.,.:.o.J.(.J.J.(.Y.J.J.J.:.' 6.c.I.6.1.,.>.;.@XP.O.' :.:...;.2.>.,.,.o.P.(.J.J.^.P.,.",
"' ;._ ' ' &.O.| | ^ | ( ' | z B ` ` z @.@.' >.( ( ' @.@.] @.>.{ O.;._ ] ' >.>.&.@.` | ( [ | B z ] ` z @.+.@.>._ ^ ' $.@.@.$.>.| ",
"j u 2 * - = 2 , 2 & & 2 , 2 1 * 2 2 & O O - < < < - = - - - r 2 j u = * + < 2 1 1 , + 2 < 2 * * 2 2 & O O - * 2 = = = = - * 2 2 ",
"b U N.M.N.b.}.b.[.M.b.].].v.6 g N b j.N.d.b.}.}.N.].{.M.M.j.h v b C }.}.N.b.N.N.[.M.n.].].v.u g N b j.M.j.b.}.M.).[.{.}.M.h.g v ",
"E uXZXpX%XpXaXyXpXsXpXdXkXOXj M V qXVXqX*XpXaXjXiXdXjXaXaX*Xh M _ pXZXsX XaXaXyXpXpXqXdXVXOXj M B uXVXyXOXpXaXjXpXaXjXaXpX*Xh b ",
"@.%Xb.-.+.=.<.1.-._ @.<.c.f.6 h +.OXg.g.` &.1.;.@.1.).1.+.=.s 2 +.&Xb.=.+.<.-.>.1.U &.-.n.1.u h +.OX1.f.` $.1.1.@.d.).<.' &.j 2 ",
"N B ` -.U +.@.+._ _ @.@.b.=.6 g z K %.d.+.&.f.-.` 1.c.c.-.+.5 6 N P E <.U +.@._ +.U ` ;.v.=.2 k B B &.-.` &.1.&.+.-.~.g.%.#.2 7 ",
"B i t < 2 a 2 2 = = r r = 6 5 N P p r i = 2 3 r < i y r t 2 6 g l t r u = i u u 2 2 < < 2 i 2 l B p 2 6 < < p i 1 6 f y y r 5 a ",
"_ N l Y f j i g p k s p c b h k K ( j 3 3 j l k p B x z f f k f ^ K x C s v s i f l f u h v h l _ _ x p d p Z h h B x z k k M g ",
"x B Y Y j i 6 g b U +.V V b N l P Y I j I b R y._ M B ^ l f l k x z B +.v a 6 h h ^ E V V v b b Z +.V b B Z #.*.U l k ^ k i Z b ",
"Z V {.}.b.v.v.j.aXqX=XrXMXNXrXrXrX=XrXrX=XMXNX{.m [.$XM.f.+.k h l Y ].N.M.j.v.f.aXwXwXrXMXMXMXeXrXeXeXrXrXeXNXC.b [. X].n.E l g ",
"F -XVXsXqX%XwXrX&Xd.i.a.x.C.{.z.h.a.l.m.m.l.l.; a NXsXsXwXn.a h P wXBXuXqX%XqXqXwX-.! u.l.C.C.l.e.w.w.e.m.m.l.4 7 BXuXwXwXv.i g ",
"` aX`.Q.| ` ' B ).} %.G D.D.D.G G G 8.0.q.q.w.; + _.<.] ' ` b 6 E iX(.J.@.] @.C ].*.q.8.q.e.e.D T 9.T w.w.0.0.e + _.1.` ` ` l a ",
"P OX:.(.X.' ;.{ }.%.D.S.S.A.A.A.D.G 8.0.w A 9.> , c.:.K...| u 6 I XXJ.I.:.) ;.@.N.u.w ; X @ X   o A T 0.w 8.0.; , c.,.>.>.@.d p ",
"Y |.^.J.J.K.F $.b.%.A.W.;X,X,X;XE.A.Z 9.e.e.w . > &.>.:.,.;.a 6 I *XP.H.L.,.P &.b.u.c   X X X     0.0.0.w w w # & ` >.:.7.| f u ",
"Y |.,.L.H.X.} ^ M.%.A.G.,X>X>X:XG.S.D 9.0 ; e ; + 7.1.:.U.;.a a V =XJ.H.J.;.( U B.w.0   X X X X X 0.0.0.w q w . , 7.:...I.>.j g ",
"I  X,.P.J.....' B.#.A.F.;X;X:XW.G.F.D q.w w w . , c.,.[ K.K.Z 8 V {.K.I.L...| ' }.q.c     X       e.0.0.w q T . $ n.6...K.2.k 5 ",
"V =X7.>.K.:.' 1.B.#.D.R.F.F.F.F.F.Q.x.q.8.w T ; < `.H.{ H.X.a 5 V *XJ.K.J.O.| 1.N.w.W W *.! Q 4.r.m.e.0.J J T @ 6 ].2...K.;.i 6 ",
"v wX1.| :.:.O.g.C.s.#.#.%.#.y.t.t.l.w.0.q w A @ , ^.2.X.K.J.f 1 M *X~.} 3.3.@.f.B.w.4.5.5.<X<X5.1X4.r.0.J J w > , n.,.X.J.P.i 1 ",
"Z %X7...| ( / @.C.e.A .   . . : . 0.0.0.0 q w o < `./.;.[ P.h + v &X2.;.@.] ' @.$X! 1XzXvXzX4X7X5X6XJ 0.J q q . , `.U.X.L J.k , ",
"M &X~.:.;.X...1.$Xm.J . > : > : : w.0.0.q 0 0 @ 2 _.>.;.:.^.j 6 N 0XP.,.,.;.;.1.C.4.1XcXbXnXmXbXcX2XJ e.e.e.0 @ 3 /.O.O.,._.h 8 ",
"B &X~.:.:.~.X.@.N.m.J . > : : : : r.T 8.0 0 n % 1 _.>.J.{ :.u 1 I wX6.O.,.P.{ &.C.5.3XxXbXmXbXbX4X2XH r.e ; 0 % 2 (.:.,...;.a 8 ",
"B tX^.J.:.J.) ` N.s.n : 4 > 9 4 4 9.w A 0 q n $ < 7.P.;.) <.a 8 U 0X^.,.:.2.) ` N.! <XvXxXxXcXcXbX2XH J 0 n m + , 1.~.$.{ ;.a , ",
"U yX@X7.O.{ ' +.v.W ! m.m.m.w.! W T q q q n n + , 6.,.{ ,.g.M * U tX'.P.O.{ ' @.v.Q 5.2X2X2X<X<X1XQ 9 q n m n $ & g.K.....J.j 1 ",
"E tXU.:.) ' @.+.C.W q.w.w.m.q.n n q A n I n u.1 < (.:.X.P.6.f & U tX(.,.' ] $.#.[.W Q Q 4.4.Q H H q ~ m T I w.1 2 _.2.X.K.~.h 8 ",
"' tX,.,.,.] ' +.E o o . # # . @ . o o % o o 1   < /.:.L.6.P.k t ` iX>.2.>.' ] @.#.@ % # % $ % # . . o   o % ,   < P.,.L.Y.~.h 7 ",
"..#XK.,.,.;./ ] i + $ + + o o   % 7 + + & , + , z 6.:.J.P.`.l a <.&X,.,.,.| / / d - - o o + o   o 7 $ & & & , , x J.K.J.Y.(.M g ",
"' ~.(.2.{ ' ' 1.<.d.<.j.d.E 7 a b -.j.f.b.N._.).c.~.~.J.Q.1.j i +.(.(.2. .) { >.1.d.<.<.v.E 5 u Z i.f.d._.n.N.].2.U.H.J.2.1.g 6 ",
"C p f l M M s l h h i j j 7 , 7 m 6 B l Y Y R E h M B Z k u 8 g B f h l l f f N M c g c b 6 1 g h t M b Y Y E Y h x M B v s 2 c ",
"U Z i s s h a a a r i t 6 6 7 V R I i h i f i i s s u s i 2 7 b U B u a g g g u s 5 g 8 8 8 i N P P j h i i i i f t p c a 8 7 V ",
"BXBXgXfXBXhXhXBXZXkXjXuXqXhXqXNXrXNXjXVXBXjXNXgXNXBXBXgXhXNXhXhXBXBXNXfXNXdXpXBXVXBXNXgX&XNXrXhXqXhXBXBXBXVXVXNXgXkXBXMXgXgXrXfX",
").).b.c.].N.1.c.oXXX`.g.1.f.c.v.1.f.g.).`.].c.b.].b.c.)._.|.p.-.).b.b.v._._.1.).+XOX}.b.i.j.v.j.j.p.v.M.[.[.z.z.].N.M.B.[.[.v.f.",
"..[ X.2.(.P.^ O.P.Y.,.../ $.2.2.P.:...o.{ ;.( | ' ;.P.P.,.>.| | ;.{ <.2.U.Y.L O.H.Y.,.=.q.t.z.v.B.a.*.p.t.a.q.t.W p.B.B.j.-.| ( ",
"L.X...( ,.P.X.X.L.H.(.:.[ ;.:.P.,.H.H.Y.Y.Y.:.^.J.P.P.U.,...' ;.Y.;.$./ o.Y.X.X.H.H.U.1.t.t.i.i.a.a.h.a.j.a.x.l.l.s.l.l.a.=.&.:.",
"U.L.;.O.L.P.,.P.I.:.J.) { Q.,.:.Y.U.T.T.I.Y.,.P.P.J.H.I.^.~.;.{ (.J.<.;.H.P.o.L.U.:.L.@.t.Z.k.%.h.k.Q.z.Q.z.x.z.x.x.x.z.h.}.:.{ ",
";.>.' ^ / O.,.:.2.>.>.` C $.;...L.L.X.X.:.O.{ $.>.2.J.Y.J.J.:._ :.;.@.( / O.,.o.,.;.;.` 8.t.y.d.}.z.k.h.d.y.t.t.x.}.z.z.h.k.;.] ",
"r u 2 6 2 < t p t i i i 2 i t t p y r y s s u 6 a t t p p t r 6 y t , < 2 r t p a a i i 8 c i d s i u 5 s a a 5 i u a s h 6 u 5 ",
"b M v v j f k k l N j g g N f f N j h v V U v g b b h l P V h g M l j f v c l j Z v v i 7 Z v v v v h k b U h g b N b M B B m c "
};
