/* XPM */
static char *_db01a93578e4aa6da1a1bd70a648bf5NTzqZVZQXVlwCw9r[] = {
/* columns rows colors chars-per-pixel */
"64 64 187 2 ",
"   c #010102",
".  c #060807",
"X  c #060709",
"o  c #07080A",
"O  c #0B0B0B",
"+  c #141414",
"@  c #181816",
"#  c #17181A",
"$  c #1B1B1B",
"%  c #252525",
"&  c #2C2C2C",
"*  c #262729",
"=  c #323232",
"-  c #373938",
";  c #3C3C3B",
":  c #373739",
">  c #434343",
",  c #4B4B4B",
"<  c #47484A",
"1  c #4F5051",
"2  c #545455",
"3  c #5B5B5C",
"4  c #565759",
"5  c #5D5E60",
"6  c #626363",
"7  c #6B6B6C",
"8  c #6D6A7F",
"9  c #666979",
"0  c #6F7072",
"q  c #747474",
"w  c #77787A",
"e  c #7B7C7C",
"r  c #75737E",
"t  c #6B6D86",
"y  c #716E8A",
"u  c #7D7E81",
"i  c #73758C",
"p  c #737A8A",
"a  c #7A7789",
"s  c #767A92",
"d  c #7C7B94",
"f  c #7B7698",
"g  c #767390",
"h  c #807F85",
"j  c #817F8C",
"k  c #807D9A",
"l  c #7F8083",
"z  c #7C818A",
"x  c #7C8294",
"c  c #838385",
"v  c #858689",
"b  c #87888A",
"n  c #8B8C8D",
"m  c #908E8F",
"M  c #8E938F",
"N  c #90928F",
"B  c #8D8E91",
"V  c #89869C",
"C  c #8E8D9B",
"Z  c #848896",
"A  c #908F95",
"S  c #928F9C",
"D  c #8F9092",
"F  c #939394",
"G  c #989697",
"H  c #969897",
"J  c #959699",
"K  c #98969C",
"L  c #97989A",
"P  c #9B9B9C",
"I  c #9A9997",
"U  c #A19F9E",
"Y  c #9EA09F",
"T  c #A2A29E",
"R  c #8984A2",
"E  c #938FA6",
"W  c #8D93A5",
"Q  c #9692A5",
"!  c #9D9EA1",
"~  c #949AAA",
"^  c #9D9CAB",
"/  c #9897A3",
"(  c #A19EA1",
")  c #A39FAD",
"_  c #A09BB1",
"`  c #9FA0A2",
"'  c #9BA1AD",
"]  c #9BA1B4",
"[  c #A3A4A4",
"{  c #A8A6A7",
"}  c #A6A8A6",
"|  c #AAAAA6",
" . c #A6A6A9",
".. c #A9A7A9",
"X. c #A7A8AA",
"o. c #ABABAC",
"O. c #B0AEAE",
"+. c #AFB1AD",
"@. c #B2B2AD",
"#. c #ADADB2",
"$. c #AAA7BB",
"%. c #A5A7BB",
"&. c #B1AFB2",
"*. c #AFB0B2",
"=. c #B3B3B4",
"-. c #B6B8B4",
";. c #BABAB6",
":. c #B5B6B9",
">. c #B8B7BB",
",. c #B7B8BA",
"<. c #BBBBBC",
"1. c #B8B7B5",
"2. c #AFADC2",
"3. c #B1ADC3",
"4. c #BEBEC1",
"5. c #BFC0C2",
"6. c #C3C3C3",
"7. c #C0C0C1",
"8. c #C2C3C5",
"9. c #C5C5C5",
"0. c #C3C3C4",
"q. c #C6C7C9",
"w. c #C6C7C9",
"e. c #C7C8CA",
"r. c #CBCBCB",
"t. c #C8C8C8",
"y. c #CACACC",
"u. c gray81",
"i. c #CECECE",
"p. c #CDCDCD",
"a. c #CBCBCC",
"s. c #CECFD1",
"d. c #CFCFD1",
"f. c #CFD0D2",
"g. c #D1D1D1",
"h. c #D3D3D3",
"j. c #D1D1D3",
"k. c #D2D3D5",
"l. c #D4D4D4",
"z. c #D7D7D7",
"x. c #D5D5D7",
"c. c #D3D3D3",
"v. c #D6D7D9",
"b. c #D7D7D9",
"n. c #D9D9D9",
"m. c #DADADA",
"M. c gray86",
"N. c gainsboro",
"B. c #DDDDDD",
"V. c #DFDFDF",
"C. c gray87",
"Z. c #DDDDDF",
"A. c #DBDBDC",
"S. c gray88",
"D. c #E1E1E1",
"F. c #E2E2E2",
"G. c gray89",
"H. c #E4E4E4",
"J. c gray90",
"K. c #E6E6E6",
"L. c #E7E7E7",
"P. c #E4E4E4",
"I. c gray91",
"U. c #E9E9E9",
"Y. c #EAEAEA",
"T. c gray92",
"R. c #ECECEC",
"E. c gray93",
"W. c #EEEEEE",
"Q. c #EFEFEF",
"!. c #EAEAEA",
"~. c gray94",
"^. c #F1F1F1",
"/. c gray95",
"(. c #F3F3F3",
"). c #F4F4F4",
"_. c gray96",
"`. c #F6F6F6",
"'. c gray97",
"]. c #F8F8F8",
"[. c #F9F9F9",
"{. c gray98",
"}. c #FBFBFB",
"|. c gray99",
" X c #FDFDFD",
".X c #FEFEFE",
"XX c white",
/* pixels */
"1.1.<.7.6.t.r.h.c.n.M.M.G.I.L.R.T.^.W.^._._.[.'.[.].].[.[.[..X[.[..X[.[._._._._._.^.Q.Q.Q.R.R.I.J.S.D.M.n.c.g.r.t.8.5.<.,.,.*.*.",
",.,.<.9.t.t.u.c.m.m.S.G.J.G.L.R.W.).^._.)._._.[.[.[.[.[.{.[.[..X.X_..X[.[..X[._._.].|.^.Q.Q.Q.U.I.J.J.S.C.l.g.u.p.e.8.4.<.,.=.:.",
"<.<.6.t.r.u.h.n.n.G.S.J.U.].{.'.Q.^.).'.'.|.[..X{.[..X|.[..X.X[.|..X.X[..X_.[.[..XJ.7.^.R.^.Q.R.R.U.J.D.M.C.n.g.f.y.q.8.4.4.:.,.",
"7.7.9.r.u.h.z.m.S.S.L._.G.<.7.M..X_._.'.[.[.[.{..X|..X.X.X|..X.X[..X[..X[..X_..Xr.m u.|..X.X^.^.Q.U.J.I.D.C.n.n.k.s.y.8.5.5.,.,.",
"6.t.r.u.c.z.m.S.V.L.^.c $     + 7 ).{.'._..X[..X.X.X|..X|..X.X|..X[..X.X.X_..X7.P L.t.c e o.[.^.R.^.U.I.J.J.C.C.v.k.s.y.q.5.4.4.",
"t.r.u.c.z.M.S.S.J.).[     . .     6 [._.[.[..X[..X.X.X|..X|..X.X.X|..X.X[..X1.F [.F         , R._.Q.Q.Q.J.J.J.n.A.x.k.s.y.y.5.5.",
"r.u.h.z.m.V.G.J.G.[.;               $ 7 Q.[.|..X|..X|..X|..X.X.X.X[..X.X[..XQ..XP     . . .   7 .XQ.R.^.^.I.J.D.Z.A.v.k.s.y.y.q.",
"u.h.z.m.S.G.J.J.[.6..           .   = l.[..X.X.X.X|..X.X.X.X.X.X.X.X.X.X.X[..Xt.              + J.[.^.D.^._.^._.G.Z.A.x.k.s.y.y.",
"l.l.n.D.S.J.U.I..Xn             .   n .X{..X.X.X.X.X.X.X.X.X.X.X.X.X.X.X.X.X[.l..               ...XD.% ; u.3 7 A.R.n.N.l.g.g.i.",
"n.C.C.J.J.U.Q.Q..X,               . u..X.X{..X.X.X.X.X.X.X.X.X.X.X.X.X.X.X.X.X.X4   .       .   q {.2   + ,     * ,.Q.n.n.n.g.g.",
"C.C.D.J.U.Q.Q._.J.+                 l..X{..X.X.X.X.X.X.X.X.X.X.X.X.X.X.X.X[.[..Xc   .           = 7   & 2 .   O   + 9.U.M.n.b.n.",
"C.D.J.J.Q.Q.Q..X7.    .         . P [..X.X.X.X[..X.X.X.X.X.X.X.X.X.X.X.X.X.X[..Xo.$       .       . 2 2 .       .   > Q.V.V.M.n.",
"D.J.U.Q.^.^.^..XP           = < 7 .X.X.X.X.X.X.X.X.X.X.X.X.X.X.X.X.X.X.X.X.X.X.X.Xt.+ -           ; <       .     .   =.^.C.V.C.",
"J.U.U.Q.^._.^..XP           & [..X].[..X[..X.X.X.X.X.X.X.X.X.X.X.X.X.X.X.X.X.X[..X.XJ.9..         O                   5 ).P.D.C.",
"J.Q.Q.^.^._._..X=.  .     .   2 [..X.X[..X.X[..X.X.X.X.X.X.X.X.X.X[..X.X.X.X.X.X_..X.X,                               = ~.J.D.J.",
"U.U.^.^.^.[._..Xg.          .   $ [ _..X[..X.X|..X.X.X.X.X.X.X.X.X.X.X.X.X.X_..X.XU.2                                 + D.~.I.J.",
"^.Q.^.^.].[.[..XC..                 * ...X{..X.X.X.X.X.X.X.X.X.X.X.X.X.X.X{..XU.q $                                   O m.).U.U.",
"Q._._.[..X[._..X).$               .     7..X[..X.X.X.X.X.X.X.X.X.X[..X.X.X.XD.%                               .       O m.[.Q.U.",
"Q.^.U.U.<..X.X_..X6   .             .   3 .X.X.X.X.X.X.X.X.X.X.X.X.X.X.X[..X4   O                         , > O =     + C._.W.Q.",
"Q..X7.i.F Q..X_..X<.                .   7 .X[..X.X.X.X.X.X.X.X.X.X.X.X.X.X{.< . .                         [ e @ n     % ^.).Q.W.",
").'.I 6.v .X].|..X.X=                 = U..X.X.X.X.X.X.X.X.X.X.X.X.X.X.X.X.Xt.O                       .   P 1 @ =.    < .X_.Q.^.",
"[.,.} n r..X]..X[..X6   .           > ^..X.X.X.X.X.X.X.X.X.X.X.X.X[..X.X.X[..Xg.&                 .   & $ q $ O 5     w .X^._.^.",
"Q.n n =..X_.[._..X{.7 $         .   q .X_.[.[..X.X.X.X.X.X.X.X[.[..X.X[..X.XW..X7   .         +   .   5 & 2 +   . ; . ,..X_._.^.",
"{.F , l..X[.[..Xg.C.2 >   .         + F .X.X.X[..X[..X[.|.[.|.[..X[..X[._..X.Xu.=           . 2 .     q * , O   @ { $ Q..X^.^.^.",
"'.'.6.q n W.[..X9.= q ;                 ; O..X.X.X[._.].[.[.|.|._.[._.[..X].e O   .           , 6 > 3 6 @ @ .   * 1.> |._.^._.^.",
"^._.{._.T h '._.[.Q.7.            . +     . ; o.J..X.X.X].]..X_..X.X.XQ.P =       .           O u..XU 2 + O $ . = =.6 |.^.).^.W.",
"W.R.E.)..X=.@..XW..X5             < ^.P 4 $     + > e m..X].[..XC.F 6 %     = 7 c.w         .   7 .X| > $ & e O % c 7 |.R.W.T.R.",
"T.W.W.I.Q.J.O.'._.z.O         .   q D.<.v $   .       @ z.[..X..O         $ c ,.^.F   .         O z.U.2 > . q 1 + 2 e .XI.I.J.I.",
"L.L.L.T.).6.T '.|.6               .             .   O   n .X.X;   . .           O O           .   2 |.[ , = + 7 @ ; n ].G.L.J.J.",
"G.J.G.G.W.c 7.).C.@           .                     .   , .X9.O                                   % ).h.5 3 + 6 3 & b _.M.S.S.M.",
"n.V.M.G.c.e ).].4   .                                   2 .X9.. .           .                     * V.V.m q 7 > c & 6 E.n.M.M.m.",
"z.z.n.M.g.7 9.7 ; =   .                       .       O 1.U.~.2         .                     .   > T.G.<.b G 7 q > 2 T.u.n.h.c.",
"s.s.x.k.Z.P > 7 L.v                     .         $ 2 7.R.C.L.C.0 % .                             [ J.c.D.} B =.A 3 : Z.k.y.s.p.",
"s.q.s.y.s.A.x.N.h.n.w +     .             O 2 e ..t.U.U.n.N.C.N.T.n.6.[ q < $           @ & % - P m.c.h.l.t.A P >.c = 9.y.s.8.8.",
"4.8.q.q.q.e.y.e.r.i.m.<.P 7 % . .   + < e 6.J.J.S.l.n.l.b.C.n.N.g.M.C.D.L.G.9.F ,       $ 3 ..C.n.i.g.u.y.g.4., 9.8.1 P y.4.8.8.",
"4.>.4.5.5.8.5.q.t.t.7.m.6 .   .   = 7.C.C.l.i.g.g.l.f.g.l.g.l.f.c.l.u.i.u.r.z.V.P.v .       + =.r.t.t.6.t.8.s.5 P b.c 5 e.:.4.,.",
",.:.,.,.:.4.<.4.<.<.r.P     .   . c A.4.q.y.y.t.t.y.i.p.s.p.p.s.s.y.s.y.t.p.t.9.8.8.O     O   3 h.7.4.4.8.>.q.` p 5.*.1 &.,.#.=.",
"#.=.#.*.:.:.*.4.1.1.9.7   .       3 Z.q.8.5.q.q.e.t.q.8.q.q.q.q.q.y.8.q.t.t.7.t.A.D     .   X 4 7.<.4.,.<.,.=.,.P o.4.P B =.#.o.",
" .o.o.o.X.*.*.+.*.=.<.F - .   . X O 0 ! 5.4.4.<.4.5.4.4.5.5.5.5.4.4.4.5.4.4.9.F 5 # X     + 5 q 4.,.=.,.&.*.o.=.*.o.o. .` X.! [ ",
"} ' [ [ X.X.X.X.*...-.M 1 1 O         & *.:.,.,.,.>.>.,.,.<.4.,.>.,.>.,.>.,.8.6 X       X < l b <.o.#.o.#.o.#.X.X.X. .[ [ [ ` ! ",
"P ! ` ` ` [  .[ X. .:.l = 0 7 5 * : u b #.:.*.:.=.:.:.*.:.:.=.,.,.:.=.=.:.*.4.c 6 3 1 6 6 7 w b =.X.} X.X. .X.[ [ ` ` ! P P P L ",
"Y / Y ` ` ` [ [ ` X.[ ! 4 w 0 e v D 0 7 ,.o.*.*.*.=.:.*.=.:.:.=.=.=.:.=.*.#.,.} 7 z F l n #.u b *.X.[  . .} ' ` [ ` ! ! ! P L L ",
"D D D M D J J J P F P ! l Y c 2 w w 6 B } ! [ ' ` ` ` ` ' ` } ` [ [ ` ' ` } ` } [ B B J F  .P D ! P P P L J F P F F D D D n Z b ",
"w u u u l l c z c l u c Z v n L B B J B B n n n n D D D D M D D B F B n D D n n B B D B B c b n b c v b v l c l l l u u u w e e ",
"l l l c c c b b n n b n n n n b b n Z D n D B F D J D J J D J J F D F F M F F D F D F D D n n B B Z b B n b b c c c b c l l l l ",
"c c c b b b b b b B B n n D B F J H J K J D F F P J J P P F L P P F H H H M H F F P D D D D L M A D B B n Z B b b b b c l c l l ",
"c b b b n b n D B n B F F B D J H D F F ! F P P / P P P P ! P ! Y H P Y H H H H P L F J D J J J J J F B D D D n n b c b b c c l ",
"b b b n n D D J F F J J B P ! L L L D P ` ! P ` ! P P P ` ` P P Y Y T Y Y Y Y Y / ` P P L L L L J J / J J D D D D n b b n b b c ",
"b B B B F J F J F P P F ) P P P P K ! P ( ! X. .[ [ ! [ [  .[ P | T [ } ( } P T P ! ..[ P I I P P P ! K / P J D D D M M n b b D ",
"B B B F J P P P P ! ! [ P Y [ ( ( P [ } [  .o.o. . . .[ o... .[ [ [ { #. ...o.[  . . ...| [ T ` K P ! ( ! ! / P H F M D F n n b ",
"D F L P P K P P [ [  .[ !  .} ! } [ [ ....o.o...| ..} [ @.o.o...o.&.#.#.o.o.o.{ } ..{ o.@.[ [ X.{ [ ( U U P U } Y H L J F n B n ",
"J F J P F J U T  .} ( ! ..o. .[ } } ..=.=.1.1.o.=.,...} o.o.=.=.=.&.=.#.=.=.o.o.o.o.} ..=.#.X.X.o.o.( U T U U T } [ P P K J F M ",
"F D n F I P [ [ } [ U ( ..} } ..} ..=.=.@.o.=.o.=.1...X.o.o.=.=.=. .:.>.+.=.1.o.o.o.| { *.2.+. .{ { | T T U U P [ [ ( P K K F A ",
"b M F P T [ [ [ U U [ o.} [ } o.@.=.=.1.#.=.O.=.1.#.@.o.1.=.7.,.&.o.=.>.=.=.<.=.[ { o...#.:.*.X.| [ | T | T P P K P ) U K G G F ",
"n F P Y P P U P [ [ } [ ( } ..o.o.=.=.=.=.1.=.,.,...=.#.1.*.<.,.O.O.&.1.,.1.-.,.+.} o.o.o.:.,.*.{ T T [ | } P L K P P G I P G A ",
"D P I I P P P [ ..o.} P } o.o.o.=.1.<.=.,.=.1.,.<...+.1.*.1.<.1.@.O.@.=.,.1.,.<.+.+.o.+.} } ;.-.O.O.| T [ ....} F F G F F F F A ",
"F F I F F P P [ ..} P [ o.=...@.=.=.&.<.<.=.1.1.>.o.O.1.o.7.,.1.1.o.=.<.@.=.4.4.=.o.} *. .[ o.-.+.o.o. .! ` !  .P F D F B n n m ",
"N c n N I I T { U P } o.P ..#.1.} @.o.7.1.=.,.7.=.=...1.=.,.7.<.>.&.&.>.1.=.4.=.<.O.| }  . .#.o.4.$.#.' ! ~ ^ K  .! B B C B b n ",
"m F c F n P T I P } [ T o.[ ,...=.=.1.7.1.1.>.9.o.1.[ o.o.1.7.1.>.&.&.&.;.=.>.$.<.>.o.o.2.$.~ ^ ] ] ] %.~ ] ' ~ W ] W s Z Z z l ",
"b b N N n n b F F I F { [ @.{ o.,.} o.o.1.o.1.<.o...[ [ | <.7.&.o...:...@.| =.&.#.#. .o.f f V d s s s x p p i i i t t t 9 p z z ",
"v m c c m N N m G I ( U O.<.[ =.@.} } ..1.o.7.1.=.[ o.+.o.7.<.1.1.o.1.| @.@.@.<.1.<.=.) k f 3.a t f g d R Z y j y g y t t a j r ",
"c c e c c m m P A { K U >.&.&.| [ o...&.=.=.6.o.o...o.@.=.<.<.;.8.o.=.[ | 1.&.=.O.@.;. ._ R 3.$._ _ Q ^ S ^ / Q Q E V V 8 u u u ",
"e c e e c m I m I G U O.&.| O.o.T | =.=.o.,.<.o...{ =.o.o.7.4.:.4.#.,.O.T =.o.>.@.| ;.[ ) ) { O.! ( ! B J F A S S J B j h h w q ",
"e q e v e N b b P G { o.( O.( G [ P =.o...7.=.| =.[ =.o.[ 6.7.&.4...&.=.P &...#.1.| O.O./ ( F T T F n n n n b v n v n v e q e q "
};
