/* XPM */
static char *_24d86f0709742eab8914a5a9644ce66ix5jDtFOncSEUnmm[] = {
/* columns rows colors chars-per-pixel */
"64 64 239 2 ",
"   c #020202",
".  c #080605",
"X  c #0A0907",
"o  c #030508",
"O  c #06080B",
"+  c #0B0B0B",
"@  c #09060B",
"#  c #11110F",
"$  c #120E11",
"%  c #141414",
"&  c #1A1A1A",
"*  c #171817",
"=  c #0C0B10",
"-  c #1C201F",
";  c #21211F",
":  c #232323",
">  c #2C2C2B",
",  c #3C3C3C",
"<  c #333333",
"1  c gray28",
"2  c #525352",
"3  c #5C5C5B",
"4  c #4B504C",
"5  c #656464",
"6  c #6A6A69",
"7  c #767676",
"8  c #9C0813",
"9  c #AD0000",
"0  c #AB0C0A",
"q  c #A70A09",
"w  c #B40101",
"e  c #BB0102",
"r  c #B40C0A",
"t  c #BC0C0B",
"y  c #B9060A",
"u  c #B2120D",
"i  c #BB120B",
"p  c #AB0E13",
"a  c #A8071A",
"s  c #A81918",
"d  c #B71816",
"f  c #AF0D11",
"g  c #B9221D",
"h  c #A71329",
"j  c #B71527",
"k  c #B61D32",
"l  c #B20D21",
"z  c #A92A27",
"x  c #B32322",
"c  c #BA2926",
"v  c #BB322B",
"b  c #BB3834",
"n  c #A73735",
"m  c #9C102B",
"M  c #C40202",
"N  c #CB0403",
"B  c #C40B05",
"V  c #CC0B05",
"C  c #C40D0B",
"Z  c #CB0C0A",
"A  c #CB040A",
"S  c #D30404",
"D  c #D30B05",
"F  c #DC0B05",
"G  c #D3060A",
"H  c #DC050A",
"J  c #D40D0A",
"K  c #DB0C0B",
"L  c #DB0606",
"P  c #CB1105",
"I  c #C4110C",
"U  c #CB140B",
"Y  c #C61407",
"T  c #D21206",
"R  c #DA1105",
"E  c #D5120C",
"W  c #DB130C",
"Q  c #DD190D",
"!  c #D6190E",
"~  c #CA0E13",
"^  c #D80E11",
"/  c #CC1412",
"(  c #CD1914",
")  c #C71818",
"_  c #D41512",
"`  c #DC1412",
"'  c #D41915",
"]  c #DC1A14",
"[  c #D31C19",
"{  c #DC1C1A",
"}  c #DB171A",
"|  c #E40405",
" . c #E30B06",
".. c #EA0C06",
"X. c #E30C0B",
"o. c #EC0D0C",
"O. c #E60509",
"+. c #F20E0C",
"@. c #F20E05",
"#. c #E41205",
"$. c #E3140D",
"%. c #EB130C",
"&. c #E41A0D",
"*. c #ED190F",
"=. c #F2140D",
"-. c #F1190E",
";. c #E40F13",
":. c #EE0F10",
">. c #E31412",
",. c #EB1413",
"<. c #E31B14",
"1. c #EB1A15",
"2. c #EA1619",
"3. c #E31C19",
"4. c #EC1B1A",
"5. c #E4171A",
"6. c #F31513",
"7. c #F91513",
"8. c #F41A14",
"9. c #FA1C15",
"0. c #F41C1A",
"q. c #FC1D1A",
"w. c #F91718",
"e. c #CF241D",
"r. c #CA2219",
"t. c #DD221D",
"y. c #D72119",
"u. c #E32016",
"i. c #EC2216",
"p. c #E2211A",
"a. c #EC231B",
"s. c #F4221C",
"d. c #FC211C",
"f. c #F32216",
"g. c #C81C29",
"h. c #D71D27",
"j. c #C71C36",
"k. c #D21D33",
"l. c #DA1E37",
"z. c #E81E24",
"x. c #F41E23",
"c. c #C32925",
"v. c #C82524",
"b. c #D52527",
"n. c #C92335",
"m. c #DA2533",
"M. c #DB3B37",
"N. c #D3382F",
"B. c #EC2321",
"V. c #EC2923",
"C. c #E52620",
"Z. c #FE2321",
"A. c #F22822",
"S. c #E92335",
"D. c #CE443D",
"F. c #CA1F41",
"G. c #BC4A46",
"H. c #BE595B",
"J. c #BE5D64",
"K. c #827C7E",
"L. c #C84746",
"P. c #D84846",
"I. c #C95855",
"U. c #D85655",
"Y. c #CD514E",
"T. c #E95E59",
"R. c #CC5D64",
"E. c #C86766",
"W. c #D76A68",
"Q. c #DB7473",
"!. c #C8706E",
"~. c #EB6A67",
"^. c #E77773",
"/. c #ED746C",
"(. c #CD6355",
"). c #FD887F",
"_. c #7E7F81",
"`. c #868586",
"'. c #939394",
"]. c #9D9C9B",
"[. c #A4A29F",
"{. c #A4A3A4",
"}. c #AAABAB",
"|. c #A7A6AB",
" X c #B4B4B4",
".X c #BBBBBB",
"XX c #B7B7B8",
"oX c #B0ABB1",
"OX c #DC8585",
"+X c #EA898A",
"@X c #F58B86",
"#X c #FD9D9A",
"$X c #F99594",
"%X c #F69590",
"&X c #FFA39D",
"*X c #EDA49E",
"=X c #FEA8A7",
"-X c #FFB4B3",
";X c #FFBDB9",
":X c #FFACB1",
">X c #C1C1BF",
",X c #FFC2BC",
"<X c #FFBFC0",
"1X c #C4C4C3",
"2X c #CCCCCC",
"3X c #C8C9CA",
"4X c #D2D2D2",
"5X c #DCDCDB",
"6X c #D9D9D7",
"7X c #D0D1CE",
"8X c #FFC3C3",
"9X c #FFCCCC",
"0X c #FFCBC4",
"qX c #FFD4CB",
"wX c #FFCED1",
"eX c #FFD6D3",
"rX c #FFDAD5",
"tX c #FFDDDA",
"yX c #FFD6DB",
"uX c #FFE2D4",
"iX c #FFDEE3",
"pX c #E5E5E5",
"aX c #ECECEC",
"sX c #FFE4E3",
"dX c #FEECEC",
"fX c #FDEAE7",
"gX c #FFF2ED",
"hX c #F8F5EC",
"jX c #FEEEF2",
"kX c #FFEFF8",
"lX c #F5F5F4",
"zX c #FEF4F3",
"xX c #F6FAF5",
"cX c #FAFAF6",
"vX c #F4F4F9",
"bX c #FDF6FA",
"nX c #F6FAFB",
"mX c #FDFDFC",
"MX c #EEF3F1",
/* pixels */
"D >.q.w.w.,.,.X.` ` ! Q >.>.3.p.3.<.{ ' ' ' ( Y U P Y P V Z J _ >.1.d.Z.s.s.0.4.>.K K S D V V N P T ! ' [ [ ( / U U C C B B N A ",
">.0.q.8.6.:.,.;.K ` ` Q >.3.3.{ t.] ] ] _ U U Y Y B B V Z J ^ 5.4.s.s.s.q.0.8.,.X.K D F S V V D T ! ' ' ' ( / Z Z Z B B B B G J ",
"0.0.4.,.,.>.>.` ` ` <.<.] <.u.3.{ ' ] E E U P Y Y Z Z V V ^ 3.0.s.d.d.q.q.9.,.%.X.S S G G V J E J ` ] ' ( U U P V V N N B Z E ` ",
"w.w.2.,.>.;.K >.>.` $.<.u.u.<.t.{ ' ] E T U P i I e A J K >.1.f.s.Z.Z.q.9.7.%.X.K L D S V J W E ` ] ' _ E P P N N A N A G ^ ` 5.",
"w.0.,.;.;.;.K ` <.&.&.<.u.p.3.{ ] E E E U Z I I e B V K $.*.f.d.A.Z.0.8.6.6.%.H S S J J J E E W } } ' ` J V B B N A G G K >.5.,.",
"6.,.,.X.;.X.W &.$.<.<.3.u.u.<.<.` E J U J Z B e i r 0 0 ) e.N.M.M.M.N.b.) I C C I U _ _ W K Q >.] ] ' E J V B N N N H K >.2.0.2.",
":.:.X.K K W Q &.&.<.<.1.5.5.5.` E E J Z V Z B r q z G.).=X,XqXtXtXtX9X;X=X+XE.G.s u C E ` ` <.] ] ! W J G V N N S L X.;.,.4.1.,.",
":.o.K W E R &.&.&.3.3.3.3.>.>.` E E V Z C w 0 z ^.;XfXlXbXbXmXmXmXbXcXmXcXzXgXiX,X#XU.c d ) [ { ` E E D V V S S L L $.,.,.0.,.&.",
"$.X.W R R ! &.&.1.i.u.3.] <.W E U Z G C q z OXtXgXcXzXcXmXnXmXbXcXcXcXcXzXcXcXbXcXcXgXrX%XI.c ) [ E D D S N G H | $.=.8.2.2.<.Q ",
"W W K W Q Q <.<.3.i.<.<.` W E T B ) r s E.wXzXbXbXcXmXmXmXmXmXmXmXmXcXmXxXcXmXmXmXvXnXcXgXsX=XL.p I D N L S H X.X.%.8.8.4.,.! E ",
"K W W $.&.&.3.2.B.5.3.<.Q D W V U 0 n *XjXgXbXbXmXmXmXmXbXmXmXmX{.2XmXcXmXmXmXmXmXcXmXcXjXlXzXjX+Xh t S S S O.>.,.8.8.,.5.>.K S ",
"J K W &.<.<.5.4.2.z.3.W E E V U q G.,XgXcXvXxXmXmXcXcXmXmXbXmX'.o * 4XmXcXmXmXnXcXmXmXmXmXbXvXjXfX:Xb y J  .;.,.w.8.,.$.>.` A N ",
"K W >.] Q u.5.z.5.3.Q E R U / p E.sXjXgXxXmXmXmXmXmXmXmXmXmX`.  o o % 3XmXmXmXmXmXmXbXmXbXbXnXmXjXjX0XG.t ;.2.0.w.w.,.;.K G A e ",
"` >.>.&.<.3.4.4.4.Q Q W E U p R.sXdXaXmXmXnXmXmXmXmXmXmXmX7   = O o   . .XmXmXmXmXmXmXbXbXnXmXlXlXzXfXeXP.) V.4.w.:.2.;.G N e e ",
"` >.&.&.<.u.1.5.] Q R F _ l H.sXzXbXbXnXmXmXmXmXmXmXmXmX5   o       o . o 5XmXnXnXnXmXmXmXlXlXxXnXlXbXjXeXL.t.0.2.2.;.^ N M w w ",
"$.>.$.1.3.4.1.3.Q W R U f I.yXjXhXnXbXmXmXmXmXmXcXmXmX2   X .         . {.mXxXmXmXmXmXbXbXlXxXxXxXbXnXzXdX8XN.z.2.,.^ A M e e w ",
"$.>.3.1.4.2.1.>.$.E P 0 J.sXfXjXcXmXmXmXmXmXmXmXmXcX1   o o     .   X XXcXxXcXmXnXxXmXcXbXcXxXxXcXxXnXnXdXzX&Xc { K G M e w e e ",
"&.3.4.4.0.2.>.$.R ! i L.yXjXzXnXmXmXmXmXmXmXnXmXaX1           o   # >XmXmXmXmXnXbXmXlXcXmXcXxXnXcXmXbXmXcXgXfX^.i ^ M e y e e M ",
",.1.4.4.4.<.>.$.W U s :XdXjXbXmXmXmXmXmXmXmXmXaX<               & 3XbXxXcXmXlXmX4X`.mXcXcXxXmXcXnXcXmXbXmXcXgXeXv r y M e M M V ",
"1.4.4.,.,.$.Q W E r !.fXdXvXmXmXmXmXmXmXlXmX5X:   o           & 6XmXcXcXmXxXmX5X;   6 mXcXlXbXcXmXcXbXmXhXhXhXcX+X8 i e M M V V ",
",.1.1.>.$.W Q E C x wXkXbXmXmXmXmXmXmXnXmX4X%             o > 5XcXlXnXmXbXmX6X&       2 nXmXcXnXcXmXmXnXcXcXxXgXsXn 0 M N G Z V ",
"5.3.<.<.&.W ! / q Q.kXvXbXmXmXmXmXbXnXmX3X* o             < aXmXcXmXbXnXmX4X-       @   1 MXmXbXxXmXnXxXmXcXlXmXbXOXq A G ^ J J ",
"3.<.>.Q Q E K I n 9XkXnXmXmXmXmXmXmXbXaX%   X             3XnXlXbXnXlXmX4X&   o           , aXmXxXmXcXnXxXcXnXbXbXwXc ~ ^ ^ J W ",
"3.{ Q Q ! T G u Q.jXkXmXmXmXmXmXmXmXmXmX X+           X   & 7XmXxXlXmX3X*               X   < pXmXlXcXxXcXmXmXbXbXkXY.t _ ` K W ",
"{ ] ] Q W E B h 0XzXbXbXmXmXmXmXmXmXmXmXmX1X%               * 3XmXmX3X%   .               o   : 5XmXlXmXcXmXmXmXbXjX%Xf _ ` X.>.",
"5.` ! T J U y Y.fXbXmXmXcXxXmXmXmXmXmXmXnXmX4X;   .       @   % 2X2X@             @ o       o   * 2XmXlXmXcXxXcXcXbX-Xx [ ` >.,.",
">.W E T G Z p $XbXcXcXmXcXcXnX_.4XmXnXmXmXlXmXpX<               % + o             =           o   # 1XmXbXbXmXxXxXcXeXb ' ,.,.>.",
">.W E T V w s 8XzXmXmXxXcXmX5   : 4XmXnXmXmXlXmXlX,             o               , pX4           .   + XXmXcXhXcXcXcXsXL.) ,.5.>.",
"W K D D V w n iXbXlXvXmXnX2   .   + XXmXnXmXmXmXmXmX2                     o   2 lXbXmX6   X o         o oXmXbXxXmXbXfXI.( 1.,.>.",
"W J T V N 0 H.dXzXmXnXaX4   @       + XXmXcXmXmXnXmXmX6 @ .                 5 nXcXcXmXmX7   X o       O . ].mXxXnXbXdXW.U 1.>.W ",
"_ E D N B q E.gXzXnXmX'.  o   @ %       |.mXlXmXmXnXmXmX>   o         . . < bXlXaXnXcXnXmX].    .     o X   |.mXnXbXjXW.U =.;.X.",
"T Z V N V 0 !.zXbXcXmXmX7   + $ %   @ X   ].mXnXlXbXlX4   + . @   o o @ * + 5 nXbXlXnXcXnXmX{.X X o + O   5 nXmXmXbXdXQ.U *.O.X.",
"T V N N B r E.cXzXmXmXmXmX`.. * # + % + % @ `.mXcXMX,   % * % +   # & $ * &   4 lXnXMXhXlXMXmX.X&   o   K.mXmXmXmXjXdXQ.B %. .H ",
"P N N M N 0 E.gXgXbXmXmXmXmX`.  % * # X * &   6 pX,   & # % % %   % + + + + &   , aXmXlXlXbXaXnX7X-   '.mXbXmXmXmXbXdXW.I X.H  .",
"N B N M N r I.dXzXcXmXmXmXvXmX{.o * # . & % # # : # & % $ & % $ > & o + & * + & @ > 4XnXaXnXlXlXmX1X|.mXmXmXmXmXmXbXsXY.C K L K ",
"N N N M N t b rXcXmXnXmXmXnXxXmX}.o o   . % +   X $ o @ X + o > 5X2X*   + @   . $   * 1XmXlXbXlXlXnXmXnXmXmXmXmXmXbXrXb C L H H ",
"M B M M G / c ,XgXmXmXmXnXmXmXxXmXXX. .         X       o   > pXmXmX2X& o         o   + }.mXbXnXmXnXmXmXmXmXnXnXnXbX8Xd Z L H O.",
"A M M N H { ) $XzXnXmXmXmXmXmXmXnXmX>X#   @         . @   < aXmXmXmXmX2X: o           X   `.xXmXmXmXmXmXmXmXmXmXxXzX$Xr J O.| O.",
"M M N S ;.3.3.T.dXmXmXbXmXmXmXmXmXnXmX7X&   .       o   1 MXmXnXmXnXlXmXXX            @   & aXmXmXmXmXmXmXmXmXmXmXgXT.C X.| | o.",
"M M S X.2.0.0.N.9XbXmXmXmXmXmXmXmXmXvXmX5X;   o . .   2 mXmXcXmXxXbXmX2X:           @   > pXmXmXmXmXmXmXmXnXmXbXcX0Xj H O.| o.:.",
"M N K ,.1.q.s.{ ).hXcXmXmXmXmXmXmXmXmXcXmXpX>   + . 3 mXmXcXmXmXlXmX3X%           @   , aXmXmXmXmXmXmXmXmXnXmXbXgX).t X...+.o.=.",
"N S ,.8.8.0.q.C.D.uXhXcXmXmXmXmXnXmXnXbXlXmXaX<   6 mXmXlXmXmXlXmX.Xo   X       o   4 cXmXmXmXmXmXmXmXmXmXmXnXbXqXz Z  ...=.8.8.",
"S X.,.8.0.q.Z.A.e.).fXcXmXmXmXnXmXmXxXmXcXxXmX5X'.mXmXcXcXnXlXmXXX+   o   o o X   3 mXmXmXmXmXmXmXmXmXmXmXnXnXdX^.t F ..@.8.f.7.",
" ...8.8.d.Z.x.Z.&.D.,XhXmXmXnXmXmXbXmXnXmXcXcXcXmXnXcXmXmXcXmXoX    o         o 5 mXmXmXmXmXmXnXmXmXmXmXmXcXzX-Xd W ..@.1.8.q.X.",
"%.1.8.9.Z.Z.Z.0.f.U ~.sXbXmXnXnXmXnXmXlXcXmXcXxXxXmXcXmXxXcX[.    X .     o   7 mXmXmXmXmXmXmXmXmXnXmXnXxXgXeXD.Z  .=.7.9.8.0.K ",
"6.0.w.d.d.Z.q.q.-.] u &XgXgXbXmXcXcXlXmXmXcXcXmXnXcXmXcXmX].        o X o   '.mXmXmXmXmXmXmXmXmXmXmXmXcXgXgX~.t >...7.q.9.8.;.N ",
",.0.f.d.d.q.q.7.@...U c.,XcXbXmXmXlXcXxXlXcXmXmXcXmXcXmX3X    X         . [.mXlXmXmXmXmXmXmXmXmXmXmXmXzXgX+Xi K o.6.w.q.6.$.A e ",
"0.0.q.d.q.9.q.+.+. .Q i G.rXdXcXlXlXbXcXnXmXmXcXmXmXmXlXcX'.  .   .   O  XmXlXmXmXmXmXmXmXmXmXmXbXbXbXgX$Xj W ..6.8.q.w.,.S e w ",
"4.s.d.d.d.8.=.o.X.F D _ ) U.uXhXMXnXnXcXmXmXcXmXcXmXmXmXnXmX|.@     % >XmXcXmXmXmXmXmXmXmXmXmXmXbXjXdX#Xd }  .+.9.q.9.%.S e e 9 ",
"f.d.d.9.8.7.+...F D T ! >.) (.uXzXjXzXbXbXmXmXcXmXmXcXmXbXcXmXXXO & 4XmXhXmXmXmXmXmXmXmXmXmXmXbXbXdX%Xx ^ ..7.q.9.q.*.F M w w 9 ",
"d.d.9.9.7.+.o.X.F F R D ] b.b.L.9XjXzXgXnXxXmXmXnXxXmXmXcXcXcXmX1X4XmXnXnXmXmXmXmXmXmXcXmXmXmXzXfX@X) ^ $.o.7.s.9.8.o.S e 9 9 w ",
"q.9.9.7.:.o.O.K #.W W &.Q <.4.b.z =XsXgXzXzXnXnXmXmXcXcXcXxXmXbXmXbXmXmXmXmXmXmXmXmXmXmXcXbXgXrXR.u K O...w.q.Z.8.$.S M e w e I ",
"d.9.8.=.o.X.K K D W &.&.i.i.3.t.e.g /.qXdXzXcXnXbXcXmXxXcXcXmXcXbXmXmXmXmXmXmXmXmXmXmXcXbXgX&Xv i U #.@.9.q.f.8.%.S e w e e N ! ",
"d.9.7.o. .K K J W ] &.<.1.&.<.] &.{ i b #XsXzXgXzXcXlXcXnXnXxXcXmXmXmXmXmXmXmXmXbXbXzXdXwXW.g Y K X.@.7.9.9.q.$.S M w 9 e C R <.",
"9.=.%. .K K K K ! <.&.i.i.&.<.Q ` ] { [ ) P.=XeXgXzXbXmXcXcXmXmXmXmXmXbXcXcXbXmXcXfX;X~.c.C ] >.o.o.+.9.q.q.w.L M e w w C E <.1.",
"8.%. . .H K K Q ] ] { i.<.i.W &.Q W <.3.a.p.v.U.+X0XfXzXzXzXzXgXbXzXgXzXgXgXfX0X%XI.c.( W %.$...:.7.w.q.q.6.;.N M w w C J <.8.f.",
"6.o. .K J K W Q ] <.u.i.<.>.$.$.&.%.%.-.f.d.A.V.e.v.D.~.@X=X-X,X,X;X-X&X).~.D.b.r.y.Q &.&.#...#.@.9.q.q.x.2.G e w e M T <.4.8.-.",
"o. .K K K W W ] u.p.u.u.] >.` $.#.@.=.-.d.d.d.d.0.Q D i 0 s x v v v v e.r.t.a.-.-.-.=.&.#.R 5.,.0.x.x.x.z.~ y y 9 r / { 3.a.w.-.",
"K K K K W ` Q <.p.u.t.] ] ` ` Q $.&.8.q.d.d.d.8.,.F P T E ( [ [ y.t.p.V.V.a.f.8.1.*.$.] [ g.[ b.S.m.m.m.g.a m 8 a l j v.b.z.,.$.",
"J J J W ` ` <.<.u.t.] ] ` ] ` Q <.1.q.d.d.d.8.8.$.D D T K Q >.<.1.i.a.a.1.0.0.4.,.$.X.] n.j.k.g.m.n.j.k j a h m h k n.n.k.h.1.$.",
"K J W _ { ] 3.<.3.] 3.} >.>.,.,.8.0.s.d.d.7.%.#.D D D W Q ` <.1.i.i.a.a.f.1.4.2.&.$.$.' l.F.l.z.j.F.j.l a a m h k n.n.k.h.[ >.#.",
"E W _ ] { { p.u.{ <.] ` ^ >.,.6.8.q.d.d.f.-.#.F D T ` W <.u.1.a.f.f.a.i.i.3.2.5.W $.&.5.l.l.S.S.S.k.~ a a a l j n.m.m.h.h.} Q #.",
"E E ] { t.p.p.<.] ] ` W $.$.,.7.7.d.q.9.-.$.K U E _ ` ` i.a.a.a.a.a.s.a.i.&.>.$.R $.*.,.z.x.x.x.4.J y y y y ~ } C.B.z.z.,.$.#.R ",
"! ' { [ p.b.p.] ] ] ' W >.,.-.8.d.d.q.7.%.$.E U _ } } 3.a.a.A.A.V.A.f.-.&.&.>.$.&.&.=.7.q.w.q.6. .S e w C ~ ` 1.f.4.2.6.:.%.#.R "
};
