/* XPM */
static char *_4b05b3f76ce489c84354493564a5509CR9NbWWGpZ0h4734[] = {
/* columns rows colors chars-per-pixel */
"64 64 213 2 ",
"   c #030303",
".  c #060805",
"X  c #090B07",
"o  c #0B0D0A",
"O  c #0E110C",
"+  c #12140E",
"@  c #15190F",
"#  c #131512",
"$  c #161912",
"%  c #1A1D14",
"&  c #1B1D1A",
"*  c #1D2115",
"=  c #1E221B",
"-  c #202517",
";  c #21251A",
":  c #252A1C",
">  c #292E1E",
",  c #2A311F",
"<  c #192021",
"1  c #232422",
"2  c #262A23",
"3  c #292D22",
"4  c #2B2C2A",
"5  c #2D3223",
"6  c #2E322C",
"7  c #2F382C",
"8  c #313625",
"9  c #333A26",
"0  c #32352A",
"q  c #353B2A",
"w  c #393E2C",
"e  c #333533",
"r  c #353A33",
"t  c #3A3D34",
"y  c #3C3E3A",
"u  c #3A432A",
"i  c #3B422D",
"p  c #3E4331",
"a  c #3E423B",
"s  c #3B4738",
"d  c #414B2F",
"f  c #414633",
"g  c #444B35",
"h  c #484E37",
"j  c #41443C",
"k  c #464C39",
"l  c #494E3A",
"z  c #475034",
"x  c #495237",
"c  c #4C533C",
"v  c #4F583D",
"b  c #50573F",
"n  c #515A3E",
"m  c #1B2E53",
"M  c #302D4E",
"N  c #37324A",
"B  c #24375C",
"V  c #3E365A",
"C  c #372A63",
"Z  c #283D65",
"A  c #44274C",
"S  c #443673",
"D  c #35465B",
"F  c #2C4265",
"G  c #2C4475",
"H  c #434542",
"J  c #454A42",
"K  c #494C44",
"L  c #484748",
"P  c #4A4D4A",
"I  c #4E5441",
"U  c #495545",
"Y  c #4D544A",
"T  c #515642",
"R  c #545B44",
"E  c #595F47",
"W  c #52564C",
"Q  c #565B4A",
"!  c #595E4A",
"~  c #535552",
"^  c #565B53",
"/  c #585C53",
"(  c #5A5C5A",
")  c #576044",
"_  c #596146",
"`  c #56634B",
"'  c #5D634B",
"]  c #5F694A",
"[  c #5D6353",
"{  c #5B6856",
"}  c #5D635A",
"|  c #5F705A",
" . c #60674E",
".. c #626A4E",
"X. c #66724E",
"o. c #616652",
"O. c #656B52",
"+. c #686E56",
"@. c #61655C",
"#. c #656B5C",
"$. c #696E5B",
"%. c #6A7255",
"&. c #687454",
"*. c #6C735A",
"=. c #70765D",
"-. c #727A5C",
";. c #626461",
":. c #666D64",
">. c #696D64",
",. c #6B6D6B",
"<. c #6C7364",
"1. c #6C726A",
"2. c #6C7968",
"3. c #717663",
"4. c #757C62",
"5. c #787E64",
"6. c #71756D",
"7. c #74796B",
"8. c #797F6E",
"9. c #727472",
"0. c #757C72",
"q. c #7A7E70",
"w. c #7B7D79",
"e. c #75805F",
"r. c #7B8365",
"t. c #798367",
"y. c #7E846B",
"u. c #7C8273",
"i. c #7A8775",
"p. c #7D837B",
"a. c #7F9179",
"s. c #80876D",
"d. c #838B6C",
"f. c #859169",
"g. c #818672",
"h. c #858C73",
"j. c #888E76",
"k. c #83857E",
"l. c #848B7C",
"z. c #898E7B",
"x. c #8B9275",
"c. c #83927D",
"v. c #8D937C",
"b. c #91967E",
"n. c #939A7D",
"m. c #493981",
"M. c #605287",
"N. c #637CA3",
"B. c #8174AC",
"V. c #6D81A3",
"C. c #828481",
"Z. c #858A82",
"A. c #898D83",
"S. c #8B8D8A",
"D. c #8C9285",
"F. c #899684",
"G. c #8D938B",
"H. c #919586",
"J. c #959B83",
"K. c #989F84",
"L. c #91948B",
"P. c #929A8D",
"I. c #999E8B",
"U. c #939491",
"Y. c #969B94",
"T. c #999E94",
"R. c #9C9D9B",
"E. c #99A081",
"W. c #9BA18B",
"Q. c #99A396",
"!. c #9AA696",
"~. c #9EA59A",
"^. c #A2A98D",
"/. c #A5AA94",
"(. c #A1A59A",
"). c #A3AA9A",
"_. c #A8B29A",
"`. c #B2B79E",
"'. c #A3A5A3",
"]. c #A5ABA3",
"[. c #A9ACA7",
"{. c #AAADA9",
"}. c #A7B2A4",
"|. c #ADB3AB",
" X c #AEBBAA",
".X c #B3B9AA",
"XX c #B3B5B2",
"oX c #B6BBB4",
"OX c #B8BBB7",
"+X c #BABDB9",
"@X c #BCC0AD",
"#X c #B9C5B5",
"$X c #BEC2BC",
"%X c #C2C8BD",
"&X c #C3C4C2",
"*X c #C6CBC5",
"=X c #CCCDCB",
"-X c #C6D0C3",
";X c #CDD2CC",
":X c #D0D4CF",
">X c #D3D6D2",
",X c #D6DAD5",
"<X c #D8DCD6",
"1X c #DCDEDC",
"2X c #DEE2DC",
"3X c #E0E1DF",
"4X c #E0DFE0",
"5X c #E4E5E4",
"6X c #E7E8E6",
"7X c #EBEBEB",
"8X c #EFF2EE",
"9X c #F4F5F4",
"0X c #FCFBFC",
/* pixels */
"k.w l *.*.b 8 , 8 - > u n -. .%.p 3 $   Y * U.;X#XS.].3X1X1X:XXXXX+X&X6X0X8X8X6XP.} ].8X$XL o f a : *.v./.n.n.K.O.+.o.8 w 0 > $ ",
"A.3 p $.s.' q > ; * > u O.-.-.r.d.O.$ 6 2.. W U.~ = $X7X9.&X0X5X:X;X>X7X6X'.'.0XXX= # G.:X1.$ 5 c ' ] -.*.s././.^.5.k ; q 5 : $ ",
"A.q q O.j.h.h i x c i ] -.s.x.-.d. .# ^ 8.p.}.s & S.3XY. XZ.+X9X7X5X7X4X:X#XZ.OX:Xp.4 ~ 6XY.& q R y.x.4.s.j.j.$.R 5 # : ; ; 3 @ ",
"Z.p g c O.n i x u d _ %.n.^.E.x.f.c + ;.Z.a.~ 1 D =X;.U ~ o ;.4X>X5X4X>X:Xi.{ J $Xw.].2X8X;X} 2 ; *..X/.T g W - + 0 p ; % - > O ",
"A.w 8 > f +.x X.-. .X.X.n.n.f.f.X.9 o ,.;X~.s O 3.Z.1 o   X 1 w.[.,X`.V.:.o # < Z.G.= 1.+X9X*X2 0 Q $.l f 0 ; 1 5 T t 3 * % * @ ",
"A.i 3 ; ! h.d.-.x.K.-.%...%.%.E q 5 + C.#Xp.3 1 Y.a # X o o o # OX0XH.  . .     = XXe # 0.7XOX2 p ' E W W R f f Q ' c q 3 3 : % ",
"A.p * q q.z.b. .s.d.X.R z v h 8 5 9 # 6 7 4 o J D.= X # = #   ~ 8X6X5X2   % 2 # X $X9.& y Y.S.& ; a h ! T $.u.y./.v.3.k 3 3 - + ",
"k.; : R 4.$.z.5.d.x , u x u q 8 u 7 O = r =   ,.l.. . # & X 6 &X7X6X9X'.. o 4 &   1.U.$ a Z.^ o ; 3 t R ! ! *.$.x.o.: 5 0 q 5 + ",
"L.k ; ' 5.w 4.x.-.d 9 w n n d g u 8 + 2 e $   U.!.1 2 = & L &X5X6X8X7X8XF.D > : * 6 Y.2 7 p.Y X # 5 l o.T w q d T T f T t 5 5 + ",
"(.5.f 3 5 W H..X-.d d w n  .h q w 9 $ # = X # $X5X:XF.{ { oX=X'.( ,.Z.,X X). Xx.!.2X,X6 * k.H # 0 0 k +.h g w h h p h p E c 0 + ",
"_.*.E > k 3.h./.e.n z g c h 8 i c i ; o O O < OX;X;XQ.2.}.R.;.2   O # a @.l.#XoX,X1X6XH # K 4 $ 0 9 q w d 3 g f w 5 5 T ' g O.5 ",
"`.+.c h T g.j.d.X.n n c g i : 9 g w % . e 4 $ G.'.|.!.%X,XY O   o # o X + { ;X;X=X|.<X( o H < $ 8  .r.h > h h f p h p q 5 E +.: ",
"`.! i 9 z y.y.n n _ b f k w i l 9 5 3 # = # # } 0.i._.OX1.1 w.9.& < 4 ;XN.@ q.$X4X+X&X0.< 2 $ 0 w b O.k w -.O.h c -.E 8 p h i : ",
"U.p u f E d.*.u E ..f g w g h w p c 5 % o # $ a D 8 0.( & H ;X,.e L ;.S.%X, + 7.;X&X&X:.p.4 + K W l h [ o.E %. . .' h h f 0 8 $ ",
"H.z q z n x d q i x g g q l c T ) p r & . 4 s 1 e # r 0 X ,.;.# $ o # . @.Y.. t } 1.{.U Z.1 & [ #.[ 5.=.+.3.h b E q - : > 5 3 o ",
"z.u z g 9 u 9 9 d c h i q 9 l $.R R J #   1 Y = 2 r J 1 # ;.2 . o o o o . T.K >.Q.S.;.:.;.# 0 Q o.*.j.y.! h n E 8 - % $ 8 i > @ ",
"A.p d c g u u z R h f d - 5 n  .n p 8 % O # y e = D ' 0 = ~ # .     . X   9.~.[.1X[.6 ( e + 0 o.v.h.$.j.h.g R h : @ % - 8 > 8 $ ",
"A.c z z u u z g q q q 8 q b b.v. .g q 5 ; O 6 e % U <.:.s Y o             Y $X|.=XXXK L $ - t 3.j.W.y.y.b 5 5 9 5 @ % - @ : i @ ",
"l.q 8 u 9 9 u 9 : 5 h g R K.@X%Xx.E +.k & o & 4 4 J C.{.0.{ o             y OXoX=XP.Q 4 # y [ -.5.h.y.j.b 5 : 9 - - : , f h i + ",
"k.8 8 9 9 , 5 , - w T l c E b..XJ.+. .h 0 o o 4 6 r Z.XXU.p.&         .   P <X&X+X#.,.1 % T ! 3.J./.b.5.c 8 : 8 : 5 > h ....q o ",
"A.u 9 u 9 : : 9 f -.! h f  .!  .J.W.+.[ Q ; o A e = S.[.R.|.y             ~.6X;Xu.Y $XH ; K ' +.d.j.J.J.O.E : - : > 8 w O.h , + ",
"D.u u c 9 , 9 c E 3.! s.Q 5.j.4.v./.W.j.>.+ t 7.2 . ,.|.[.{.R.6 e 2 e y Y 2X6X&X2 e 2X( 2 k I  ...$.O.b.s.+.R * % 5 q q  .d q @ ",
"A.8 9 g x 5 5 f f w T b.[ l I./.J.W.+.5.T   H t   o D [.XXY.,X;X&XXX{.$X5X2X3XXX=   ( } & ' k k l b ! 4.s.=. .f k b d g h d > + ",
"A.w : > w 8 R v c p g Q h.#.=.J.h.=.f b q O 1 K : 2 T Q.+X{.S.P 4 4 $ 2 S.;X2X}.r = ~ Y 0 f O.y.c i l  .b  .%. .b b , i 8 q > @ ",
"H.i : 8 , h +.c f f T o.I.4.u.y.y.! 5 5 * + + y ( W 2.p.|.=Xp.o   . .   ( 2X-X$Xi.!.Q.6 k l k h f p p p b E r.E 8 : > > w 8 5 @ ",
"A.g 9 8 9 w q w ; i T b o.E o.8.W h 5 ; % + X = ~ 7.c.0.~.;X<X'.Y % = } 1X<X#X$X X.X[ O 4 f h R h f h O.%.' X.h * 5 > - 9 d 5 O ",
"z.d 9 u u w 9 , > f q o.g.3.' 9 q w 0 0 ; ; X o 4 :.].2.G.~.;X;X;X!.Y.;X,X#X@X-XOXH.; o > l E f 8 b R c E h f u - - d h d 9 , + ",
"L.i 9 i , 8 w u , 3 4.b.v.y.%.z  .i 8 8 0 5 O X # r G.F.1.| ^ ^ 0.Q.2.<.i.}.:X2XJ.L X % t f E q w h 8 : q R f 3 : q c b c c b % ",
"S.9 i q > : 9 u 9 9 ....X.r.] _ *.O.E h i , > ; o O ~ ~.Y s = O # 4 < O 2 f.2X,X,.$ + 1 w 8 w i 5 8 ; 3 9 h c f w q t b b b w @ ",
"S.i 9 8 q 8 9 8 g f _ r.f.r.e.f.j.-.x g f i d > # X & :.2.6 % # O . o # @ V.2XP.4 + : q f w d 9 5 : > 3 f E h h ' 8 h d.n c p + ",
"z.p 8 i f 9 , , 8 9 g ) r.e.v _ %. .d d q i 9 9 % # + 2 | s # O O o o . k ;X#Xs . ; 5 f b , 9 u q > p f b +.+...c 3 8 h  .h 8 $ ",
"A.8 > d 9 % * 8 f u g -.X.) X.X.d h d q 8 w E T 3 $ $ o P 1.#.7 = = 6 `  X&X$XW 1 $ + > p > > w w q , 8 3 w h w 0 ..E q c  .8 $ ",
"W.q , 8 > 9 g d d u d X.%.X.-.x.h u i q p b [ T 2 2 3 % P 9.U.H.F.Y.oX#X'.%X=XOXH.e $ - > - > 9 5 > 8 q i p 5 T +.+.5.E b w 8 * ",
"A., - : ; > 9 d d d w d n ....n i i w q h T l c = j r b L ~ 1.~.&X*X=X&XR.=X{.9.v.V.3 8 d : : > % 9 E f  . .o.! l l %.5.5.$.l * ",
"A.0 8 q i h 9 u u w 9 u X._ h n c p 8 ' b q 5 0 4 1 1 D y ;.W p.oX%X,X(.} -XC.s [ G.4 , w 8 d z n b O.*.%.b -.d.' c ! -.E f  .; ",
"I.c b q h h c d u u d _ %.-.-.d.+.E E O.f 5 b t 4 # & # 6 J 4 K V.W..X/ & R.S.= t 4 3 ; > i 9 r.K.n.K.*.R R R o.o.: 8 f T =.T + ",
"I.b b f d f 9 d w n h ..%.-.d.-.b h  ...! l ' t 1 $ X & 4 $ # & 6 y K & . e '.1 # 4 & i n w E d.^.`.x.%.g g O.-.! 8 d +.4.$.h $ ",
"L.h f ' _ :  .r.c %.X.X.d.r.x.%.' g R  .O.j q ; # 4 4 4 O   . o # o o X .   H :.= & $ > T r.g.b...n.h.O.i g =.x.4.T E  .f T h * ",
"W.E c h  ._ x.*.%.%.' O.' E E h c f h *.+.O.q $ X # < X   X X . . . . . . .   & & . - w O.*. .s.b -.s.=.+.d.5.d.$.h q b -.-.0 % ",
"L.h 9 8 R %.-.d.-.8 > 8 8 p h 8 f f 8 p R 5.l 1 O X   X o + + + o o + o + # . . O ; q u u b g E E T b f  .' T b g g > g E T 8 + ",
"H.p i h  .g n d.+.c i 8 q h E 8 8 f > 5 c  .d 9 $ O o + * & $ # % $ $ $ % + o + % : : 3 d 8 b n.O.l 0 f +.T d f b T p q w w 9 # ",
"z.w g i 5 q  ...g f b h 5 f w ; % - 3 w f n c p 0 $ ; 3 1 5 : 1 ; & & $ O o + $ & ; ; * 5 b  . .g 0 f b k f d q T  .I f k f f @ ",
"A.w : -  .%.-.g 8 g c p q t 8 3 : 8 : g n  .n p 4 q ; 0 f 5 4 ; ; ; * + $ % - % t p * 8 l *.w 8 8 g g 8 *. .8 f b *.4.T R d q @ ",
"S.8 $ w c X.r. .E o.t > q 0 t 8 f 8 f b n c f w T $.! 0 Q c c f 3 2 ; : ! h 0 3 i q 5 q b T w 8 8 b w 8 R  .*.o.l T 3.E n w 8 + ",
"L.: * q d %.+.s.-...E w 9 > w x g w h b g d h f T  .b c 3.*.b f h f i 0 h g w q w > 3 ; 5 c 8 - d h 0 q n +. .4.T i 5 z w i h - ",
"w.> - h h h n d.x.%.T 9 0 i w b w f c 9 c ) b 9 i d : E [ ! g q w 8 h d i *.r.i 8 5 : - ! g 5 > 5 i T b -.T h E O.i 9 x f x z + ",
"k.q w ..n +.-.r.b E *.-.' f q i q 9 d w w d q 8 : E f 8 h  .' b b b g i c -.O.i w 9 w l b f 8 q : b -.%.-. .l l R w 9 x x , - o ",
"7.- q q 5 f l f 8 : b T > 8 % * @ o @ * o + - @ - q , + $ : 8 w 9 > - 8 > + 9 8 8 > i i - @ % % @ b b q w 5 - : : : @ @ O X @ o ",
"W f L L [ @.W W A b K K j t t e K J j j Q J y g W j t j a W #.~ j P l k K j W ~ #.W / K K W a l k / K j t e t j a e 0 e e e e a ",
"$.#.#.4.q.v.q.[ q.j.7.7.3.8.>.#.g.7.>.8.z.3.@.<.7.6.3.g.l.J.`.H.g.z.<.3.b.>.q.b.z.z./.j.`.s.K |.;.j.J.6.3.4.3.g.3.>./ W W [ @.<.",
"@ > 5 - > w 8 8 9 f 5 > h g h 0 5 9 p %.g p 3 5 u 5 w f > : g k k R q , 3 @ w k q I -.f h 5 4 U.w g T ! h 5 q 8 3 : - @ O - : % ",
"8 > 5 3 p h f k f w 5 w g q c w w r.[ g.T E i g g c z v 9 a h ] +.y.f f h w : p E O.T 5 8 - 6 (.$.*.b E f : q 9 3 % > , 5 - - 3 ",
"h - > , 8 g f 0 h i 8 q 9 c =.s.l T *.k c f k g c g T n c c [ J.y. .f i p b q > ' +.5 3 - $ 0 .X[ c h c f w 8 8 - > 5 8 w 5 - g ",
"q 8 3 9 - 0 E f 8 > i x  .+.=.r.+.l ' w g k c g u k *.T c d ' ' +.t 8 5 b c 0 ' t g w ; f : 2 (.8 5 8 8 9 d q - 5 > 8 5 - > : : ",
"9 5 3 g 8 8 h c g f u g ..q w 9  .' > p p c p c R k y.y.y.g i _ l i , q ' R f T c l 0 T 5.8 1 T.b g 5 3 8 8 > : : - 5 - 5 5 8 3 ",
"8 - - 9 q 9 b c l b 9 9 q q g f X.&.w u k n i 9 g y.J.t.t.f i p g f d i k p f b ' f t =.T - 2 D.q R R p * 5 w 5 > 5 8 ; > 8 f > ",
"9 > 8 u 5 2 9 8 q 0 q 8 > q 8 i n ..n g h b R p g 5.j.b.' 8 5 w d q g  .: 5 f T 0 l $.5 8 8 4 Y.; - c p * : : u : : 9 q 0 5 w ; ",
", 9 5 w * ; : : 8 8 - w c d w 9 f d d i _ g g T f : c q * - : f E c c t q T k t l o.b 0 l 9 2 P.; ; f > 3 * % = * 9 0 6 q g 8 & ",
"; 8 9 ; = 5 ; : > - 8 g n n g c _ x 8 : d h _ f c k % & 5 8 i E T n g h T I k T *.r.w c x.s 6 !.> > c i 3 = 1 : : h 9 e g k - $ ",
"* 9 9 * ; : : % $ 5 k ! 9 q z c f w > d 8 l T R b c ' O.h f w +. .c c ! $.T $.h.v.+.0 3.N.M.M V.Z B G D F m G Z B Z Z D G & + % ",
"8 u : % 9 : % 5 p R c I g w w g h d 8 ..n l 8 p t k =.5.b c w *.5.%.=.4.3.Q =.j.h.g.+.R M.m.4 B.S C C M N M C V m.N m.A C ; % ; ",
"- - * - 5 = q R R k 9 : 5 9 w f E b f n b R l 8 w k f p ! ! h o.j.5.! o.=.3.R 4.$.I c t j A 2 (.9 @ @ > : = 9 > * 3 q f A 3 @ @ ",
"@ * * 9 5 w g : 5 9 i , - 5 > > f ! E n E d.' p q b k I c l l o. .R o.R %.$.$.5. .R R 8 e ; 1 L.5 : - : * i g 1 * # > > - - % + ",
"- , > - 9 _ i : : ; u f q 9 8 i h g =.E -.v.+.c f I I o.O.' o.l p I ! k O.-.5.j.s.! R p c : 0 L.8 > * - 5 g p 5 5 * - - - - % - "
};
